<svg width="14" height="10" viewBox="0 0 14 10" fill="none" xmlns="http://www.w3.org/2000/svg">
<path d="M5.39014 9.19299L0.957032 4.74799C0.907327 4.69808 0.868135 4.63892 0.84131 4.57379C0.814485 4.50867 0.800643 4.43884 0.800782 4.36841C0.800922 4.29798 0.815204 4.22829 0.842286 4.16327C0.869369 4.09825 0.908595 4.03921 0.958497 3.9895C1.0084 3.9398 1.06769 3.90042 1.13281 3.8736C1.19794 3.84677 1.26795 3.83299 1.33838 3.83313C1.40881 3.83327 1.47844 3.84731 1.54346 3.87439C1.60848 3.90147 1.66758 3.94107 1.71729 3.99097L5.38037 7.664L12.2993 0.534974C12.3984 0.432865 12.534 0.374289 12.6763 0.372132C12.8185 0.369975 12.9555 0.424441 13.0576 0.523499C13.1597 0.622558 13.2185 0.758145 13.2207 0.900391C13.2229 1.04264 13.1684 1.17987 13.0693 1.28198L5.39014 9.19299Z" fill="#7E8AB1"/>
</svg>
