<svg width="14" height="14" viewBox="0 0 14 14" fill="none" xmlns="http://www.w3.org/2000/svg">
<mask id="mask0_618_7814" style="mask-type:luminance" maskUnits="userSpaceOnUse" x="0" y="0" width="14" height="14">
<path d="M14 0H0V14H14V0Z" fill="white"/>
</mask>
<g mask="url(#mask0_618_7814)">
<path d="M7.0015 0.583008C6.05309 0.583079 5.11644 0.793403 4.25907 1.19885C3.40169 1.6043 2.64493 2.19478 2.04312 2.9278C1.44132 3.66081 1.00946 4.51813 0.778721 5.43805C0.547982 6.35796 0.524045 7.31759 0.708652 8.24786C0.89326 9.17813 1.28182 10.0559 1.84635 10.818C2.41087 11.5801 3.13732 12.2076 3.97342 12.6553C4.80953 13.1029 5.73457 13.3596 6.6818 13.407C7.62903 13.4543 8.57488 13.2911 9.45145 12.929C10.427 12.5263 11.2882 11.889 11.9585 11.0738C12.6288 10.2585 13.0876 9.29046 13.2941 8.25543C13.5006 7.22041 13.4486 6.1504 13.1425 5.14032C12.8364 4.13024 12.2858 3.21134 11.5395 2.46503C10.3343 1.26353 8.70323 0.587037 7.0015 0.583008ZM7.0015 12.25C6.22503 12.2497 5.45824 12.0775 4.75626 11.7457C4.05428 11.4138 3.43449 10.9306 2.94144 10.3307C2.4484 9.73091 2.09437 9.02931 1.9047 8.27637C1.71503 7.52342 1.69448 6.73785 1.84452 5.97601C2.05379 4.95785 2.55687 4.02336 3.29154 3.28802C3.90211 2.67847 4.6535 2.22883 5.47928 1.97894C6.30506 1.72906 7.1797 1.68665 8.02579 1.85541C8.87189 2.02417 9.66339 2.3989 10.3301 2.94647C10.9968 3.49404 11.5182 4.19754 11.8482 4.99469C12.1782 5.79184 12.3066 6.65806 12.222 7.51666C12.1373 8.37526 11.8424 9.19977 11.3632 9.91718C10.8839 10.6346 10.2352 11.2228 9.4744 11.6297C8.71362 12.0366 7.86426 12.2496 7.0015 12.25Z" fill="white"/>
<path d="M7.58402 6.75898V3.5C7.5845 3.34656 7.52621 3.19874 7.42106 3.08698C7.30769 2.9791 7.15751 2.91835 7.00102 2.917C6.92511 2.91669 6.8499 2.93156 6.77983 2.96076C6.70976 2.98995 6.64629 3.03286 6.59306 3.08698C6.53695 3.14001 6.49244 3.20407 6.46232 3.27515C6.4322 3.34623 6.41708 3.42281 6.41801 3.5V7C6.4171 7.07705 6.4322 7.15345 6.46232 7.22437C6.49244 7.29529 6.53698 7.35916 6.59306 7.41199L8.34306 9.16199C8.3969 9.21494 8.46068 9.25679 8.53068 9.2851C8.60068 9.31341 8.67551 9.32761 8.75102 9.32697C8.90428 9.3252 9.0507 9.26346 9.15898 9.15497C9.26295 9.04384 9.3249 8.8999 9.33402 8.74799C9.33399 8.59524 9.27573 8.44824 9.17106 8.33698L7.58402 6.75898Z" fill="white"/>
</g>
</svg>
