<svg width="12" height="12" viewBox="0 0 12 12" fill="none" xmlns="http://www.w3.org/2000/svg">
<mask id="mask0_618_7749" style="mask-type:luminance" maskUnits="userSpaceOnUse" x="0" y="0" width="12" height="12">
<path d="M12 0H0V12H12V0Z" fill="white"/>
</mask>
<g mask="url(#mask0_618_7749)">
<path d="M5.99923 0.500001C5.18592 0.499534 4.38259 0.679458 3.64718 1.0268C2.91177 1.37413 2.26258 1.88023 1.7463 2.50867C1.23002 3.1371 0.859579 3.87223 0.661584 4.66107C0.463589 5.44992 0.442967 6.27286 0.601281 7.07062C0.759596 7.86837 1.09289 8.62108 1.57711 9.27454C2.06133 9.92799 2.68444 10.4659 3.40157 10.8496C4.11871 11.2333 4.91201 11.4531 5.72433 11.4933C6.53665 11.5335 7.34771 11.393 8.09921 11.082C8.935 10.7364 9.67271 10.19 10.2469 9.49121C10.8211 8.79243 11.2141 7.96281 11.3911 7.07587C11.5681 6.18892 11.5237 5.27198 11.2617 4.40631C10.9997 3.54065 10.5283 2.75295 9.88925 2.11298C8.85624 1.08304 7.45795 0.503264 5.99923 0.500001ZM5.99923 10.5C5.33369 10.4997 4.67647 10.352 4.07479 10.0675C3.47311 9.78303 2.94195 9.36884 2.51937 8.85468C2.09679 8.34051 1.79325 7.73914 1.6307 7.09375C1.46815 6.44837 1.45057 5.775 1.57919 5.12201C1.7592 4.25076 2.19024 3.45124 2.81918 2.82202C3.34215 2.29774 3.98648 1.91063 4.69491 1.69501C5.40334 1.47939 6.15408 1.44191 6.88046 1.58594C7.60683 1.72997 8.28641 2.05101 8.85897 2.52063C9.43153 2.99025 9.87932 3.59392 10.1627 4.27808C10.446 4.96224 10.5562 5.70576 10.4834 6.44269C10.4105 7.17962 10.1569 7.88719 9.74508 8.50263C9.33325 9.11806 8.77595 9.62234 8.12252 9.97077C7.46909 10.3192 6.73975 10.501 5.99923 10.5Z" fill="#AAAAAA"/>
<path d="M6.50004 5.79303V3C6.5007 2.86838 6.45054 2.74156 6.36002 2.646C6.26282 2.55352 6.13419 2.50135 6.00004 2.5C5.93491 2.49975 5.87033 2.51253 5.81022 2.5376C5.75011 2.56268 5.6957 2.59954 5.65006 2.646C5.60196 2.69144 5.56382 2.74639 5.538 2.80732C5.51218 2.86824 5.49923 2.93384 5.50004 3V6C5.49925 6.06602 5.51218 6.1315 5.538 6.19226C5.56382 6.25303 5.60199 6.30778 5.65006 6.35303L7.15006 7.85303C7.19625 7.89841 7.25089 7.93418 7.31095 7.95838C7.37101 7.98257 7.43529 7.99471 7.50004 7.99402C7.63149 7.99294 7.75721 7.94009 7.85001 7.84699C7.93915 7.75168 7.99222 7.62825 8.00004 7.49799C8.00009 7.36707 7.94997 7.24112 7.86002 7.146L6.50004 5.79303Z" fill="#AAAAAA"/>
</g>
</svg>
