<svg width="164" height="76" viewBox="0 0 164 76" fill="none" xmlns="http://www.w3.org/2000/svg">
<mask id="mask0_633_9863" style="mask-type:luminance" maskUnits="userSpaceOnUse" x="89" y="32" width="75" height="45">
<path d="M163.84 32.856H89.5664V76.001H163.84V32.856Z" fill="white"/>
</mask>
<g mask="url(#mask0_633_9863)">
<path d="M136.201 63.761C136.201 62.0717 137.314 60.028 139.541 57.63C141.575 55.4596 143.907 53.5881 146.466 52.071C147.96 51.1296 149.543 50.3355 151.192 49.7C152.087 49.4056 153.02 49.2406 153.962 49.21L154.695 49.292C155.673 49.4013 156.162 50.246 156.162 51.826C156.189 52.0473 156.161 52.272 156.081 52.48C155.607 53.7253 154.714 54.7662 153.555 55.423C151.53 56.6175 149.403 57.6299 147.2 58.448C145.062 59.3596 142.855 60.0976 140.6 60.655C140.306 60.6962 140.025 60.7974 139.772 60.9523C139.52 61.1071 139.302 61.3123 139.132 61.555C138.717 61.9981 138.484 62.5822 138.481 63.19C138.481 64.28 139.132 64.825 140.436 64.825C143.097 64.825 146.845 63.325 151.68 60.325L159.502 55.502L161.457 54.439C161.607 54.3854 161.746 54.3021 161.864 54.194C162.135 54.0307 162.379 53.8943 162.597 53.785C162.828 53.6843 163.077 53.6287 163.33 53.621C163.385 53.6133 163.441 53.6186 163.494 53.6364C163.547 53.6543 163.596 53.6843 163.635 53.7239C163.675 53.7636 163.704 53.8119 163.722 53.865C163.74 53.9181 163.744 53.9746 163.736 54.03C163.736 54.466 163.112 55.066 161.863 55.83L156.811 59.1L155.181 60.163C154.149 60.817 153.225 61.3893 152.411 61.88C151.596 62.3707 150.401 63.0247 148.826 63.842C147.25 64.6593 145.675 65.395 144.1 66.049C143.071 66.5448 141.972 66.8758 140.841 67.03C139.702 67.1645 138.552 66.9047 137.582 66.294C137.147 66.0324 136.79 65.6599 136.548 65.2148C136.305 64.7696 136.185 64.2678 136.201 63.761ZM144.756 58.202C144.756 58.1473 144.837 58.0927 144.999 58.038C145.162 57.9293 145.271 57.902 145.326 57.956C145.357 57.9539 145.387 57.9456 145.415 57.9315C145.443 57.9174 145.468 57.8979 145.489 57.874C145.506 57.8016 145.548 57.7376 145.607 57.6928C145.667 57.6481 145.74 57.6255 145.815 57.629H145.895L146.385 57.384C146.524 57.3392 146.66 57.2847 146.792 57.221C147.552 56.9483 147.96 56.8393 148.014 56.894C148.016 56.8627 148.024 56.8322 148.038 56.8042C148.052 56.7763 148.072 56.7514 148.096 56.731H148.259C148.39 56.6668 148.526 56.612 148.666 56.567C148.799 56.5282 148.935 56.5007 149.072 56.485L148.991 56.403H149.154C149.226 56.3358 149.309 56.2805 149.399 56.239C149.517 56.2079 149.628 56.1524 149.725 56.076H149.318L149.236 55.994C149.236 55.776 149.508 55.558 150.052 55.34C150.192 55.2665 150.328 55.1847 150.459 55.095C150.63 54.9697 150.794 54.8331 150.947 54.686C151.065 54.5943 151.206 54.5378 151.355 54.523C151.926 54.3834 152.475 54.1632 152.985 53.869C153.313 53.6606 153.615 53.4135 153.885 53.133C154.029 52.9992 154.194 52.8888 154.374 52.806C154.519 52.7419 154.656 52.6595 154.781 52.561C154.919 52.342 154.976 52.0818 154.944 51.825C154.877 51.642 154.85 51.4472 154.863 51.253V50.599L154.537 50.681H154.451C154.397 50.681 154.288 50.5993 154.125 50.436C153.907 50.218 153.717 50.2727 153.555 50.6C153.392 50.9273 152.414 51.4997 150.622 52.317C147.873 53.5702 145.341 55.2533 143.122 57.303C142.817 57.5711 142.543 57.8731 142.307 58.203C142.307 58.3663 143.23 58.0937 145.077 57.385H145.158L145.403 57.222C145.403 57.276 145.457 57.304 145.566 57.304L144.751 57.713L144.425 57.877C144.262 58.0403 144.208 58.1767 144.262 58.286C144.536 58.172 144.699 58.1423 144.751 58.197L144.756 58.202ZM150.704 55.831L150.623 55.749C150.632 55.736 150.644 55.7254 150.658 55.7181C150.672 55.7108 150.688 55.7069 150.704 55.7069C150.72 55.7069 150.736 55.7108 150.75 55.7181C150.764 55.7254 150.776 55.736 150.786 55.749C150.797 55.7507 150.808 55.7497 150.819 55.7462C150.83 55.7427 150.839 55.7367 150.847 55.7287C150.855 55.7207 150.861 55.711 150.865 55.7003C150.868 55.6895 150.869 55.6782 150.868 55.667H150.46L150.135 55.749C150.026 55.6943 149.972 55.6397 149.972 55.585C149.809 55.585 149.727 55.694 149.727 55.912C149.781 56.0753 149.944 56.0753 150.216 55.912H150.623C150.634 55.9136 150.645 55.9125 150.656 55.9088C150.667 55.905 150.677 55.8987 150.685 55.8904C150.693 55.8821 150.699 55.872 150.702 55.8609C150.705 55.8499 150.706 55.8383 150.704 55.827V55.831ZM149.238 56.731C148.048 56.9862 146.897 57.3984 145.816 57.957C145.762 58.1203 145.925 58.1477 146.305 58.039L147.446 57.712C147.725 57.6222 147.997 57.5129 148.261 57.385C148.445 57.2902 148.635 57.2083 148.831 57.14C148.946 57.0676 149.055 56.9856 149.157 56.895C149.181 56.8738 149.2 56.8478 149.214 56.8188C149.228 56.7897 149.235 56.7581 149.236 56.726L149.238 56.731Z" fill="#081B4D"/>
<path d="M121.41 64.002L121.573 63.266C122.031 62.1495 122.548 61.058 123.121 59.996L126.788 53.211L127.766 51.494L129.233 48.878C129.449 48.6412 129.616 48.3633 129.722 48.061C129.79 47.7346 129.929 47.4272 130.129 47.161C130.375 46.7643 130.678 46.4061 131.029 46.098C131.239 45.9369 131.497 45.8507 131.762 45.853C132.414 45.853 132.903 46.2617 133.229 47.079C133.304 47.231 133.333 47.4019 133.31 47.57C133.306 47.746 133.249 47.9167 133.147 48.06C133.023 48.1821 132.886 48.2916 132.74 48.387C132.545 48.4553 132.354 48.5372 132.17 48.632C131.967 48.6803 131.775 48.7631 131.6 48.877C131.493 48.9038 131.393 48.9545 131.309 49.0253C131.224 49.0962 131.156 49.1853 131.111 49.286C131.077 49.3808 131.067 49.4824 131.081 49.582C131.095 49.6816 131.133 49.7764 131.192 49.858C130.866 49.858 130.594 50.1033 130.377 50.594C130.303 50.9982 130.276 51.4096 130.296 51.82C129.858 52.9742 129.283 54.0719 128.585 55.09L126.874 58.36C126.548 58.7413 126.467 59.0137 126.63 59.177L128.993 57.624L131.437 55.744C132.428 54.9149 133.492 54.1762 134.615 53.537C137.06 51.9017 138.364 51.057 138.526 51.003C140.319 50.0763 141.405 49.5313 141.785 49.368C142.709 49.0078 143.663 48.734 144.637 48.55C145.56 48.4413 146.022 48.4413 146.022 48.55C146.022 48.6025 146.037 48.6539 146.066 48.6976C146.095 48.7412 146.137 48.7752 146.185 48.795C146.945 49.013 146.512 49.4763 144.885 50.185L144.396 50.43C141.178 51.6002 138.156 53.2524 135.434 55.33C132.555 57.6734 129.405 60.48 125.983 63.75L125.331 64.404C124.951 64.7313 124.49 65.1127 123.946 65.548C123.501 65.8983 123.039 66.2257 122.561 66.529C122.507 66.4203 122.29 66.039 121.909 65.385C121.655 64.9607 121.485 64.491 121.41 64.002ZM142.758 50.348H142.84C143.231 50.324 143.615 50.2414 143.981 50.103C144.524 49.885 144.796 49.7213 144.796 49.612V49.53C144.796 49.4753 144.742 49.448 144.633 49.448C144.277 49.4757 143.923 49.5302 143.574 49.611C142.974 49.7203 142.674 49.884 142.674 50.102C142.675 50.266 142.703 50.348 142.758 50.348ZM137.299 53.128L138.766 52.474C140.884 51.602 141.997 50.9753 142.106 50.594C142.106 50.3213 142.052 50.185 141.943 50.185C141.726 50.0757 140.748 50.566 139.01 51.656C137.326 52.6367 136.484 53.209 136.484 53.373H136.565C136.679 53.3718 136.79 53.3437 136.891 53.291C137.03 53.2468 137.166 53.193 137.298 53.13L137.299 53.128Z" fill="#081B4D"/>
<path d="M121.832 45.859L121.506 46.023C121.452 46.023 121.425 45.7504 121.425 45.205C121.394 44.6206 121.522 44.0388 121.794 43.5208C122.067 43.0029 122.474 42.568 122.973 42.262C123.292 42.0723 123.662 41.9867 124.032 42.017C124.329 41.9874 124.628 42.0232 124.91 42.1221C125.192 42.2209 125.448 42.3803 125.662 42.589C125.744 42.6758 125.809 42.7786 125.851 42.891C125.893 43.0034 125.911 43.1232 125.906 43.243C125.894 43.5447 125.779 43.8333 125.58 44.06C125.077 44.398 124.47 44.5433 123.869 44.469C123.666 44.4648 123.468 44.522 123.299 44.633C123.209 44.6743 123.127 44.7293 123.055 44.796C122.964 44.898 122.883 45.0074 122.811 45.123C122.702 45.2317 122.648 45.3133 122.648 45.368C122.548 45.5156 122.406 45.6296 122.241 45.695C122.094 45.7186 121.954 45.7746 121.832 45.859ZM108.063 66.541C106.922 66.541 106.352 65.8054 106.352 64.334C106.543 63.0935 107.079 61.9318 107.9 60.982C111.213 56.5153 114.635 52.2373 118.166 48.148C118.872 47.3307 119.469 46.922 119.958 46.922C120.176 46.9363 120.39 46.9942 120.586 47.0925C120.782 47.1907 120.956 47.3273 121.099 47.494C121.356 47.6972 121.53 47.988 121.588 48.311C121.588 48.5837 121.343 48.747 120.855 48.801C120.692 48.8557 120.502 49.21 120.285 49.864C120.091 50.5619 119.659 51.1697 119.063 51.581C118.737 51.7443 118.547 51.7443 118.493 51.581V51.254C118.493 51.2016 118.478 51.1501 118.449 51.1065C118.42 51.0628 118.378 51.0288 118.33 51.009C118.279 50.9821 118.223 50.9681 118.167 50.9681C118.11 50.9681 118.054 50.9821 118.004 51.009C117.955 51.0288 117.913 51.0628 117.884 51.1065C117.855 51.1501 117.84 51.2016 117.841 51.254V52.154C117.895 52.372 117.732 52.699 117.352 53.135C117.026 53.5163 116.754 53.707 116.537 53.707C116.474 53.7111 116.413 53.7278 116.357 53.7559C116.301 53.7841 116.251 53.8232 116.211 53.871L115.967 54.361C115.847 54.5373 115.711 54.7014 115.56 54.851C115.125 55.287 114.908 55.614 114.908 55.832C114.796 56.2646 114.571 56.6595 114.256 56.976C113.989 57.3447 113.621 57.6285 113.197 57.793C113.09 57.8455 113.005 57.9316 112.953 58.038C112.899 58.1467 112.899 58.2283 112.953 58.283C113.007 58.501 112.518 59.2093 111.486 60.408C110.128 61.8253 109.503 62.752 109.612 63.188C111.35 62.9154 115.423 60.79 121.833 56.812C123.062 56.0469 124.342 55.3641 125.662 54.768C126.081 54.6035 126.489 54.4125 126.884 54.196C127.334 53.8611 127.871 53.6625 128.432 53.624C128.649 53.624 128.758 53.7603 128.758 54.033C128.758 54.469 128.133 55.069 126.884 55.833C123.624 58.0677 121.044 59.701 119.144 60.733L110.507 65.719C109.785 66.2161 108.938 66.4993 108.063 66.536V66.541Z" fill="#081B4D"/>
<path d="M90.7081 75.937C90.3821 75.937 90.0821 75.637 89.8081 75.037C89.6333 74.6526 89.5498 74.233 89.5641 73.811C89.5641 70.977 92.0641 66.0993 97.0641 59.178C101.464 53.02 107.222 45.5263 114.337 36.697C114.453 36.5666 114.562 36.43 114.663 36.288C115.369 35.416 116.021 34.6257 116.618 33.917C117.107 33.2083 117.407 32.854 117.518 32.854C118.061 32.854 118.577 33.2627 119.066 34.08C119.265 34.4 119.377 34.7664 119.392 35.143C119.406 35.4453 119.379 35.7481 119.311 36.043C119.094 37.2963 115.264 42.3373 107.823 51.166C105.596 53.7273 104.266 55.335 103.831 55.989C103.776 56.0437 103.641 56.207 103.424 56.479L102.691 57.46L101.713 58.768C101.243 59.2932 100.833 59.8691 100.491 60.485C100.487 60.5476 100.47 60.6088 100.442 60.6649C100.414 60.7211 100.376 60.7711 100.328 60.812C100.147 60.9251 99.9824 61.0628 99.8391 61.221C99.6764 61.439 99.4864 61.7113 99.2691 62.038C98.6294 63.2074 97.8646 64.3038 96.9881 65.308C96.4447 65.8527 96.1731 66.234 96.1731 66.452C95.8866 67.0568 95.5009 67.6095 95.0321 68.087C94.3935 68.7902 93.871 69.5905 93.4841 70.458C93.3473 70.8384 93.1552 71.1966 92.9141 71.521C92.5932 71.8947 92.3195 72.3065 92.0991 72.747C91.9764 73.1186 91.8124 73.4751 91.6101 73.81C91.3701 74.2132 91.2045 74.6563 91.1211 75.118C91.1171 75.664 90.9794 75.937 90.7081 75.937ZM103.174 54.274C102.957 54.492 102.875 54.6553 102.93 54.764C103.039 54.8187 103.202 54.737 103.419 54.519C103.508 54.3876 103.59 54.251 103.663 54.11L103.5 53.947C103.445 53.947 103.336 54.056 103.173 54.274H103.174ZM104.315 54.519C104.043 54.519 103.826 54.7097 103.663 55.091C103.554 55.309 103.527 55.4453 103.581 55.5C103.635 55.5547 103.798 55.4183 104.07 55.091C104.287 54.7097 104.368 54.519 104.314 54.519H104.315ZM102.115 55.5C102.071 55.4967 102.027 55.5022 101.985 55.5163C101.943 55.5304 101.904 55.5527 101.871 55.582L102.36 55.664L102.441 55.582L102.278 55.5H102.115ZM99.1001 61.141L98.9371 60.651C98.9371 60.5963 99.0184 60.569 99.1811 60.569C99.4551 60.5452 99.7133 60.43 99.9141 60.242C100.286 59.8908 100.542 59.4344 100.647 58.934C100.714 58.7511 100.742 58.5563 100.729 58.362C100.729 58.0347 100.485 58.0073 99.9961 58.28C99.7787 58.3347 99.7787 58.498 99.9961 58.77C100.105 58.8787 100.132 58.9603 100.077 59.015H99.6701C99.4527 59.015 99.1527 59.3693 98.7701 60.078C98.3874 60.7867 98.1157 61.168 97.9551 61.222L97.7921 61.385C97.7921 61.6577 98.1451 61.794 98.8511 61.794C99.1797 61.74 99.2627 61.522 99.1001 61.14V61.141ZM97.7151 62.367C97.5524 62.6943 97.5254 62.8577 97.6341 62.857C97.7967 62.857 97.9324 62.7207 98.0411 62.448C98.1497 62.1207 98.1497 61.9573 98.0411 61.958L97.7971 62.203L97.7151 62.367ZM96.6561 63.92L96.4121 63.675C96.3034 63.675 96.2221 63.784 96.1681 64.002C96.1141 64.1113 96.1411 64.166 96.2491 64.166C96.5197 64.1653 96.6551 64.0833 96.6551 63.92H96.6561ZM95.5971 65.391L95.5151 65.064C95.3902 65.1074 95.2791 65.1833 95.1932 65.2838C95.1072 65.3843 95.0496 65.5059 95.0261 65.636C95.0261 65.7447 95.1074 65.799 95.2701 65.799C95.5961 65.7997 95.7057 65.6637 95.5971 65.391ZM93.9671 68.252L94.5371 67.761H94.3741C94.0716 67.7289 93.7658 67.7568 93.4741 67.843L93.3931 68.252C93.3951 68.5793 93.5864 68.5807 93.9671 68.256V68.252ZM92.5001 71.031C92.5001 70.6497 92.3644 70.677 92.0931 71.113C91.9844 71.2223 91.9844 71.304 92.0931 71.358C92.3644 71.4133 92.5001 71.3037 92.5001 71.031Z" fill="#081B4D"/>
</g>
<path d="M103.617 19.451H112.512V45.246H103.617V41.688C100.119 44.1773 95.9921 45.6343 91.7067 45.893C87.4213 46.1517 83.1494 45.2017 79.3774 43.1513C75.6055 41.1009 72.4852 38.0325 70.3719 34.2954C68.2586 30.5584 67.2372 26.303 67.4241 22.0138C67.611 17.7247 68.9986 13.5742 71.4289 10.0352C73.8592 6.4961 77.2346 3.71065 81.1706 1.99607C85.1065 0.281491 89.4449 -0.293307 93.6915 0.337141C97.9382 0.967589 101.922 2.77794 105.191 5.56202L98.3486 12.336C96.0128 10.607 93.1846 9.67163 90.2786 9.66702C88.5343 9.65367 86.8053 9.99216 85.1948 10.6623C83.5843 11.3324 82.1255 12.3203 80.9056 13.567C79.0406 15.4288 77.7688 17.8012 77.2505 20.3849C76.7322 22.9687 76.9906 25.648 77.9932 28.0851C78.9957 30.5221 80.6976 32.6077 82.8839 34.0788C85.0703 35.5498 87.6434 36.3405 90.2786 36.351C93.8145 36.3341 97.2034 34.9343 99.7206 32.451C100.963 31.2593 102.003 29.8727 102.8 28.346H92.5326V19.451H103.617ZM103.549 28.346L103.617 28.414V28.346H103.549Z" fill="#081B4D"/>
<path d="M51.5742 0.77301H62.2432V45.246H51.5742V0.77301Z" fill="#081B4D"/>
<path d="M35.51 45.246L32.294 39.02H15.531L12.315 45.246H0L23.947 0.77301L47.826 45.246H35.51ZM19.842 30.672H27.984L23.947 22.872L19.842 30.672Z" fill="#081B4D"/>
</svg>
