<svg width="525" height="168" viewBox="0 0 525 168" fill="none" xmlns="http://www.w3.org/2000/svg">
<path fill-rule="evenodd" clip-rule="evenodd" d="M162.782 78.8209L199.261 28.4509L198.046 27.5709L161.28 78.3409C161.114 78.1795 160.983 77.9867 160.892 77.7738C160.802 77.5609 160.755 77.3322 160.754 77.101V10.8009C160.754 10.343 160.936 9.90395 161.259 9.57971C161.582 9.25547 162.021 9.07251 162.479 9.07092H260.602L228.046 54.031L229.261 54.9109L262.454 9.07092H270.354L249.746 37.531L250.961 38.4109L272.205 9.07092H279.782C280.24 9.07277 280.678 9.25578 281.001 9.57996C281.325 9.90414 281.506 10.3431 281.507 10.8009V77.101C281.506 77.5577 281.324 77.9953 281 78.3177C280.677 78.6402 280.239 78.8212 279.782 78.8209H162.782Z" fill="#EAF0FF"/>
<path fill-rule="evenodd" clip-rule="evenodd" d="M4.78191 78.5709L41.2609 28.2009L40.0459 27.3209L3.27991 78.0909C3.1144 77.9295 2.98267 77.7367 2.89236 77.5238C2.80206 77.3109 2.755 77.0822 2.75391 76.851V10.5509C2.75417 10.093 2.93583 9.65395 3.25913 9.32971C3.58243 9.00547 4.02103 8.82251 4.4789 8.82092H102.602L70.0459 53.781L71.2609 54.6609L104.454 8.82092H112.354L91.7459 37.281L92.9609 38.1609L114.205 8.82092H121.782C122.24 8.82277 122.678 9.00578 123.001 9.32996C123.325 9.65414 123.506 10.0931 123.507 10.5509V76.851C123.506 77.3077 123.324 77.7453 123 78.0677C122.677 78.3902 122.239 78.5712 121.782 78.5709H4.78191Z" fill="#EAF0FF"/>
<path d="M126.274 75.8209H10.975C9.72296 75.8201 8.52236 75.3227 7.63657 74.4379C6.75077 73.553 6.25212 72.353 6.25 71.101V6.71094H7.75V71.101C7.75159 71.9553 8.09204 72.7741 8.69664 73.3778C9.30124 73.9815 10.1206 74.3207 10.975 74.3209H126.275L126.274 75.8209Z" fill="#DFE2EC"/>
<path d="M4.975 6.07092H122.275C123.528 6.07304 124.73 6.57225 125.616 7.45898C126.501 8.34572 126.999 9.54754 127 10.8009V77.101C126.998 78.353 126.499 79.553 125.613 80.4379C124.728 81.3227 123.527 81.8201 122.275 81.8209H4.975C3.72296 81.8201 2.52236 81.3227 1.63657 80.4379C0.750772 79.553 0.252118 78.353 0.25 77.101V10.8009C0.250793 9.54754 0.748704 8.34572 1.6345 7.45898C2.52029 6.57225 3.72164 6.07304 4.975 6.07092ZM122.275 80.3209C123.129 80.3207 123.949 79.9815 124.553 79.3778C125.158 78.7741 125.498 77.9553 125.5 77.101V10.8009C125.5 9.9452 125.16 9.12458 124.555 8.51904C123.951 7.9135 123.131 7.57251 122.275 7.57092H4.975C4.1193 7.57251 3.29918 7.9135 2.69457 8.51904C2.08997 9.12458 1.75026 9.9452 1.75 10.8009V77.101C1.75159 77.9553 2.09204 78.7741 2.69664 79.3778C3.30124 79.9815 4.12062 80.3207 4.975 80.3209H122.275Z" fill="#081B4D"/>
<path d="M128.276 75.8209H126.276V74.3209H128.276C129.13 74.3207 129.95 73.9815 130.554 73.3778C131.159 72.7741 131.499 71.9553 131.501 71.101V4.8009C131.501 3.9452 131.161 3.12458 130.556 2.51904C129.952 1.9135 129.132 1.57251 128.276 1.57092H10.975C10.1193 1.57251 9.29918 1.9135 8.69457 2.51904C8.08997 3.12458 7.75026 3.9452 7.75 4.8009V6.71094H6.25V4.8009C6.25079 3.54754 6.7487 2.34572 7.6345 1.45898C8.52029 0.572253 9.72164 0.0730411 10.975 0.0709229H128.275C129.528 0.0730411 130.73 0.572253 131.616 1.45898C132.501 2.34572 132.999 3.54754 133 4.8009V71.101C132.998 72.3528 132.499 73.5528 131.614 74.4376C130.728 75.3224 129.528 75.8199 128.276 75.8209Z" fill="#081B4D"/>
<path d="M283.775 75.8209H168.475C167.223 75.8201 166.022 75.3227 165.137 74.4379C164.251 73.553 163.752 72.353 163.75 71.101V6.71094H165.25V71.101C165.252 71.9553 165.592 72.7741 166.197 73.3778C166.801 73.9815 167.621 74.3207 168.475 74.3209H283.775V75.8209Z" fill="#DFE2EC"/>
<path d="M162.475 6.07092H279.775C281.028 6.07304 282.23 6.57225 283.116 7.45898C284.001 8.34572 284.499 9.54754 284.5 10.8009V77.101C284.498 78.353 283.999 79.553 283.113 80.4379C282.228 81.3227 281.027 81.8201 279.775 81.8209H162.475C161.223 81.8201 160.022 81.3227 159.137 80.4379C158.251 79.553 157.752 78.353 157.75 77.101V10.8009C157.751 9.54754 158.249 8.34572 159.134 7.45898C160.02 6.57225 161.222 6.07304 162.475 6.07092ZM279.775 80.3209C280.629 80.3207 281.449 79.9815 282.053 79.3778C282.658 78.7741 282.998 77.9553 283 77.101V10.8009C283 9.9452 282.66 9.12458 282.055 8.51904C281.451 7.9135 280.631 7.57251 279.775 7.57092H162.475C161.619 7.57251 160.799 7.9135 160.195 8.51904C159.59 9.12458 159.25 9.9452 159.25 10.8009V77.101C159.252 77.9553 159.592 78.7741 160.197 79.3778C160.801 79.9815 161.621 80.3207 162.475 80.3209H279.775Z" fill="#081B4D"/>
<path d="M285.775 75.8209H283.775V74.3209H285.775C286.629 74.3207 287.449 73.9815 288.053 73.3778C288.658 72.7741 288.998 71.9553 289 71.101V4.8009C289 3.9452 288.66 3.12458 288.055 2.51904C287.451 1.9135 286.631 1.57251 285.775 1.57092H168.475C167.619 1.57251 166.799 1.9135 166.195 2.51904C165.59 3.12458 165.25 3.9452 165.25 4.8009V6.71094H163.75V4.8009C163.751 3.54754 164.249 2.34572 165.134 1.45898C166.02 0.572253 167.222 0.0730411 168.475 0.0709229H285.775C287.028 0.0730411 288.23 0.572253 289.115 1.45898C290.001 2.34572 290.499 3.54754 290.5 4.8009V71.101C290.498 72.353 289.999 73.553 289.113 74.4379C288.228 75.3227 287.027 75.8201 285.775 75.8209Z" fill="#081B4D"/>
<path d="M140.15 140.721H138.65V121.971C138.65 118.194 137.605 115.311 135.544 113.401C133.624 111.623 130.885 110.721 127.4 110.721H75.6496C71.5016 110.721 68.2866 109.585 66.0946 107.345C63.8856 105.088 62.8106 101.803 62.8996 97.583V81.4709H64.3996V97.6069C64.3176 101.413 65.2486 104.336 67.1666 106.296C69.0666 108.237 71.9206 109.221 75.6496 109.221H127.4C129.126 109.2 130.844 109.45 132.493 109.963C134.003 110.437 135.393 111.235 136.564 112.301C138.944 114.506 140.151 117.76 140.151 121.971L140.15 140.721Z" fill="#DFE2EC"/>
<path d="M140.148 140.721H138.648V121.971C138.648 117.759 139.855 114.506 142.235 112.301C143.406 111.235 144.796 110.437 146.306 109.963C147.955 109.45 149.673 109.2 151.399 109.221H203.148C206.877 109.221 209.731 108.237 211.631 106.296C213.549 104.336 214.48 101.413 214.398 97.6069V81.4709H215.898V97.583C215.987 101.804 214.912 105.088 212.703 107.345C210.511 109.585 207.296 110.721 203.148 110.721H151.398C147.914 110.721 145.174 111.621 143.254 113.401C141.193 115.311 140.148 118.194 140.148 121.971V140.721Z" fill="#DFE2EC"/>
<path d="M139.401 141.782L132.871 135.252L133.932 134.191L139.402 139.661L144.872 134.191L145.933 135.252L139.401 141.782Z" fill="#DFE2EC"/>
<path d="M1.95329 83.4109L0.738281 82.531L36.0383 33.781L37.2533 34.6609L1.95329 83.4109Z" fill="white"/>
<path d="M29.8086 38.485V49.195H31.2336V44.295H36.1536V43.095H31.2336V39.685H36.8386V38.485H29.8086ZM38.2836 38.485V49.195H39.5586V38.485H38.2836ZM42.4686 45.325C42.4618 44.8998 42.5253 44.4764 42.6566 44.072C42.7665 43.7336 42.9422 43.4203 43.1736 43.15C43.3861 42.9054 43.6501 42.7107 43.9466 42.58C44.2418 42.45 44.561 42.3836 44.8836 42.385C45.2065 42.3834 45.5261 42.4499 45.8216 42.58C46.1181 42.7107 46.382 42.9054 46.5946 43.15C46.826 43.4203 47.0017 43.7336 47.1116 44.072C47.2425 44.4765 47.3057 44.8999 47.2986 45.325C47.3056 45.7498 47.2424 46.1728 47.1116 46.577C47.0028 46.9138 46.8269 47.225 46.5946 47.492C46.3803 47.733 46.1167 47.925 45.8216 48.055C45.5264 48.185 45.2071 48.2514 44.8846 48.25C44.562 48.2514 44.2428 48.185 43.9476 48.055C43.6526 47.9253 43.389 47.7336 43.1746 47.493C42.9423 47.226 42.7664 46.9148 42.6576 46.578C42.526 46.1736 42.4621 45.7502 42.4686 45.325ZM41.1186 45.325C41.1139 45.8643 41.1949 46.401 41.3586 46.915C41.5089 47.3863 41.7539 47.8218 42.0786 48.195C42.405 48.5647 42.8099 48.8568 43.2636 49.05C43.7766 49.2632 44.3282 49.3677 44.8836 49.357C45.4417 49.3694 45.9963 49.2648 46.5116 49.05C46.9622 48.8553 47.3641 48.5633 47.6886 48.195C48.0136 47.8213 48.2586 47.385 48.4086 46.913C48.5723 46.399 48.6533 45.8623 48.6486 45.323C48.6531 44.7804 48.5721 44.2404 48.4086 43.723C48.2598 43.2481 48.0147 42.8089 47.6886 42.433C47.3632 42.0637 46.9616 41.7693 46.5116 41.57C45.9976 41.3502 45.4425 41.2428 44.8836 41.255C44.3274 41.2443 43.7753 41.3517 43.2636 41.57C42.8104 41.7678 42.406 42.0624 42.0786 42.433C41.7524 42.8089 41.5073 43.2481 41.3586 43.723C41.1948 44.241 41.1138 44.7817 41.1186 45.325ZM57.0186 49.165C56.7361 49.3095 56.4205 49.3768 56.1036 49.36C55.8147 49.3748 55.5316 49.2753 55.3156 49.083C55.2077 48.9594 55.1262 48.8152 55.076 48.6591C55.0258 48.503 55.008 48.3382 55.0236 48.175C54.6996 48.5761 54.2791 48.8885 53.8016 49.083C53.3215 49.2706 52.81 49.3646 52.2946 49.36C51.9576 49.3619 51.6216 49.3216 51.2946 49.24C51.0008 49.1693 50.7236 49.042 50.4786 48.865C50.2442 48.6895 50.056 48.4596 49.9306 48.195C49.7881 47.8814 49.7197 47.5392 49.7306 47.195C49.716 46.822 49.7932 46.4511 49.9556 46.115C50.0975 45.8446 50.3006 45.6111 50.5486 45.433C50.8035 45.2523 51.0877 45.117 51.3886 45.033C51.7039 44.943 52.0266 44.868 52.3566 44.808C52.7066 44.738 53.0399 44.6853 53.3566 44.65C53.6373 44.6212 53.9155 44.571 54.1886 44.5C54.3981 44.4505 54.5933 44.3529 54.7586 44.215C54.8312 44.1443 54.8875 44.0587 54.9238 43.9641C54.9601 43.8694 54.9753 43.7681 54.9686 43.667C54.9797 43.4318 54.9253 43.1981 54.8116 42.992C54.7134 42.8285 54.5737 42.6939 54.4066 42.602C54.2338 42.5094 54.0458 42.4485 53.8516 42.422C53.6484 42.3947 53.4436 42.3823 53.2386 42.385C52.7696 42.3682 52.3043 42.4741 51.8886 42.692C51.698 42.8176 51.5436 42.991 51.441 43.1949C51.3383 43.3988 51.291 43.6261 51.3036 43.854H50.0286C50.034 43.4313 50.1367 43.0156 50.3286 42.639C50.5012 42.3186 50.7481 42.0442 51.0486 41.839C51.3606 41.6282 51.7093 41.4776 52.0766 41.395C52.4824 41.3027 52.8974 41.2574 53.3136 41.26C53.6623 41.2599 54.0105 41.285 54.3556 41.335C54.6843 41.3794 55.0022 41.4834 55.2936 41.642C55.5723 41.7958 55.8052 42.0208 55.9686 42.294C56.153 42.6303 56.2412 43.0109 56.2236 43.394V47.384C56.2164 47.6052 56.2338 47.8266 56.2756 48.044C56.3103 48.184 56.4279 48.254 56.6286 48.254C56.7617 48.2497 56.8934 48.2244 57.0186 48.179V49.165ZM54.9486 45.195C54.7601 45.327 54.5451 45.4164 54.3186 45.457C54.0586 45.5123 53.7859 45.5573 53.5006 45.592C53.2153 45.6267 52.9279 45.6653 52.6386 45.708C52.3704 45.7467 52.1083 45.8196 51.8586 45.925C51.6382 46.018 51.4449 46.1652 51.2966 46.353C51.1408 46.5736 51.064 46.8403 51.0786 47.11C51.0727 47.2959 51.1169 47.48 51.2066 47.643C51.288 47.7844 51.401 47.9052 51.5366 47.996C51.6802 48.0911 51.8403 48.1586 52.0086 48.195C52.1958 48.2358 52.387 48.2559 52.5786 48.255C52.9461 48.2635 53.3121 48.2049 53.6586 48.082C53.9289 47.9848 54.1783 47.8371 54.3936 47.647C54.5717 47.4882 54.7147 47.2941 54.8136 47.077C54.8987 46.8945 54.9447 46.6963 54.9486 46.495V45.195ZM59.9736 41.445V39.115H58.6986V41.44H57.3786V42.565H58.6986V47.5C58.6884 47.7933 58.7221 48.0866 58.7986 48.37C58.8544 48.5677 58.9667 48.745 59.1216 48.88C59.2876 49.0095 59.4837 49.0948 59.6916 49.128C59.9712 49.1765 60.2548 49.199 60.5386 49.195H61.5136V48.07H60.9286C60.766 48.0716 60.6034 48.064 60.4416 48.047C60.3375 48.0384 60.2371 48.004 60.1496 47.947C60.0791 47.8958 60.0288 47.8215 60.0076 47.737C59.9793 47.6192 59.9665 47.4981 59.9696 47.377V42.565H61.5186V41.44L59.9736 41.445ZM71.2236 45.585H67.6536L71.1936 40.385H71.2236V45.585ZM72.4236 45.585V38.565H71.4036L66.5586 45.475V46.705H71.2236V49.195H72.4236V46.705H73.8636V45.58L72.4236 45.585ZM79.6086 41.445V49.195H80.8836V44.365C80.8915 44.173 80.9293 43.9834 80.9956 43.803C81.0769 43.5661 81.1987 43.3452 81.3556 43.15C81.5331 42.9294 81.7523 42.746 82.0006 42.61C82.2929 42.4532 82.6211 42.3756 82.9526 42.385C83.1967 42.3764 83.4398 42.42 83.6656 42.513C83.8424 42.5915 83.9949 42.7158 84.1076 42.873C84.222 43.0378 84.3013 43.2243 84.3406 43.421C84.3871 43.648 84.4095 43.8793 84.4076 44.111V49.195H85.6826V44.365C85.6701 44.1009 85.7115 43.837 85.8043 43.5894C85.8971 43.3418 86.0395 43.1157 86.2226 42.925C86.4207 42.7392 86.6545 42.5955 86.9097 42.5027C87.165 42.4099 87.4364 42.3698 87.7076 42.385C87.9667 42.3755 88.2248 42.4216 88.4646 42.52C88.6467 42.5997 88.8044 42.7264 88.9216 42.887C89.0354 43.0512 89.1122 43.2382 89.1466 43.435C89.1877 43.6576 89.2078 43.8836 89.2066 44.11V49.195H90.4816V43.51C90.4908 43.1584 90.4271 42.8087 90.2946 42.483C90.1798 42.21 89.9995 41.9696 89.7696 41.783C89.5303 41.5949 89.2544 41.4587 88.9596 41.383C88.6144 41.2941 88.259 41.2511 87.9026 41.255C87.4143 41.2503 86.9328 41.369 86.5026 41.6C86.0794 41.828 85.7246 42.1645 85.4746 42.575C85.4125 42.3583 85.3075 42.1564 85.1658 41.9811C85.024 41.8059 84.8485 41.661 84.6496 41.555C84.245 41.3516 83.7974 41.2487 83.3446 41.255C82.8471 41.235 82.3532 41.347 81.913 41.5797C81.4728 41.8124 81.1021 42.1576 80.8386 42.58H80.8086V41.44L79.6086 41.445ZM92.4086 41.445V49.195H93.6786V44.365C93.6865 44.173 93.7243 43.9834 93.7906 43.803C93.8719 43.5661 93.9938 43.3452 94.1506 43.15C94.3281 42.9294 94.5473 42.746 94.7956 42.61C95.0879 42.4532 95.4161 42.3756 95.7476 42.385C95.9917 42.3764 96.2347 42.42 96.4606 42.513C96.6374 42.5915 96.7899 42.7158 96.9026 42.873C97.0166 43.0378 97.0956 43.2244 97.1346 43.421C97.1814 43.648 97.2042 43.8792 97.2026 44.111V49.195H98.4786V44.365C98.466 44.1009 98.5075 43.837 98.6003 43.5894C98.6932 43.3418 98.8355 43.1157 99.0186 42.925C99.2167 42.7392 99.4505 42.5955 99.7057 42.5027C99.961 42.4099 100.232 42.3698 100.504 42.385C100.763 42.3755 101.021 42.4216 101.261 42.52C101.443 42.5996 101.601 42.7262 101.719 42.887C101.832 43.0512 101.909 43.2382 101.944 43.435C101.985 43.6576 102.005 43.8836 102.004 44.11V49.195H103.279V43.51C103.288 43.1584 103.224 42.8087 103.092 42.483C102.977 42.21 102.797 41.9696 102.567 41.783C102.327 41.5949 102.051 41.4587 101.757 41.383C101.411 41.294 101.055 41.251 100.699 41.255C100.21 41.2503 99.7288 41.369 99.2986 41.6C98.8755 41.828 98.5206 42.1645 98.2706 42.575C98.2085 42.3583 98.1035 42.1564 97.9618 41.9811C97.82 41.8059 97.6445 41.661 97.4456 41.555C97.041 41.3516 96.5934 41.2487 96.1406 41.255C95.6438 41.2357 95.1507 41.3481 94.7113 41.5807C94.2719 41.8134 93.9018 42.1582 93.6386 42.58H93.6086V41.44L92.4086 41.445Z" fill="#081B4D"/>
<path d="M191.809 38.485V49.195H193.234V44.295H198.154V43.095H193.234V39.685H198.839V38.485H191.809ZM200.284 38.485V49.195H201.559V38.485H200.284ZM210.409 49.165C210.126 49.3095 209.81 49.3768 209.494 49.36C209.205 49.3748 208.922 49.2753 208.706 49.083C208.598 48.9594 208.516 48.8152 208.466 48.6591C208.416 48.503 208.398 48.3382 208.414 48.175C208.09 48.5761 207.669 48.8885 207.192 49.083C206.712 49.2706 206.2 49.3646 205.685 49.36C205.348 49.3619 205.012 49.3216 204.685 49.24C204.391 49.1693 204.114 49.042 203.869 48.865C203.634 48.6895 203.446 48.4596 203.321 48.195C203.178 47.8814 203.11 47.5392 203.121 47.195C203.106 46.822 203.183 46.4511 203.346 46.115C203.487 45.8447 203.69 45.6112 203.938 45.433C204.192 45.2523 204.477 45.117 204.778 45.033C205.092 44.943 205.415 44.868 205.745 44.808C206.095 44.738 206.428 44.6853 206.745 44.65C207.026 44.6212 207.304 44.5711 207.578 44.5C207.787 44.4505 207.982 44.3529 208.148 44.215C208.22 44.1443 208.277 44.0587 208.313 43.9641C208.349 43.8694 208.364 43.7681 208.358 43.667C208.368 43.4317 208.314 43.198 208.2 42.992C208.103 42.8292 207.965 42.6947 207.8 42.602C207.627 42.5094 207.439 42.4485 207.245 42.422C207.043 42.3922 206.84 42.3772 206.637 42.377C206.168 42.3602 205.702 42.4661 205.287 42.684C205.096 42.8096 204.942 42.983 204.839 43.1869C204.736 43.3908 204.689 43.6181 204.702 43.846H203.419C203.424 43.4233 203.527 43.0076 203.719 42.631C203.891 42.3106 204.138 42.0362 204.439 41.831C204.751 41.6231 205.099 41.4753 205.466 41.395C205.871 41.3027 206.286 41.2574 206.703 41.26C207.052 41.2599 207.4 41.2849 207.746 41.335C208.074 41.3794 208.392 41.4834 208.684 41.642C208.962 41.7958 209.195 42.0208 209.359 42.294C209.543 42.6303 209.631 43.0109 209.614 43.394V47.384C209.606 47.6052 209.624 47.8266 209.666 48.044C209.7 48.184 209.818 48.254 210.018 48.254C210.151 48.2497 210.282 48.2244 210.408 48.179L210.409 49.165ZM208.339 45.195C208.15 45.327 207.935 45.4164 207.709 45.457C207.449 45.5123 207.176 45.5573 206.891 45.592C206.605 45.6267 206.318 45.6667 206.029 45.712C205.76 45.7507 205.498 45.8236 205.249 45.929C205.028 46.022 204.835 46.1692 204.687 46.357C204.531 46.5777 204.455 46.8444 204.47 47.114C204.463 47.2998 204.507 47.4839 204.597 47.647C204.678 47.7884 204.791 47.9092 204.927 48C205.07 48.0937 205.231 48.1598 205.399 48.195C205.586 48.2358 205.777 48.2559 205.969 48.255C206.336 48.2635 206.702 48.2049 207.049 48.082C207.319 47.9848 207.568 47.8371 207.784 47.647C207.962 47.4882 208.105 47.2941 208.204 47.077C208.289 46.8945 208.335 46.6963 208.339 46.495V45.195ZM213.364 41.445V39.115H212.089V41.44H210.769V42.565H212.089V47.5C212.078 47.7933 212.112 48.0866 212.189 48.37C212.244 48.5677 212.357 48.745 212.512 48.88C212.678 49.0095 212.874 49.0948 213.082 49.128C213.365 49.1771 213.651 49.1996 213.939 49.195H214.914V48.07H214.329C214.166 48.0717 214.003 48.064 213.841 48.047C213.736 48.0384 213.636 48.004 213.549 47.947C213.478 47.8958 213.428 47.8215 213.407 47.737C213.378 47.6192 213.366 47.4981 213.369 47.377V42.565H214.909V41.44L213.364 41.445ZM225.739 41.275H227.014C226.987 40.5113 226.664 39.788 226.114 39.258C225.527 38.7685 224.777 38.5185 224.014 38.558C223.351 38.5325 222.694 38.6992 222.124 39.038C221.624 39.3572 221.212 39.7953 220.924 40.313C220.61 40.8805 220.394 41.4968 220.286 42.136C220.159 42.8362 220.097 43.5465 220.099 44.258C220.1 44.8403 220.143 45.4217 220.227 45.998C220.304 46.5734 220.479 47.1314 220.744 47.648C221.002 48.1463 221.384 48.5699 221.854 48.878C222.426 49.222 223.087 49.389 223.754 49.358C224.335 49.3767 224.912 49.2614 225.442 49.021C225.867 48.8212 226.243 48.5291 226.542 48.166C226.813 47.8266 227.015 47.4363 227.134 47.018C227.25 46.6233 227.31 46.2144 227.314 45.803C227.318 45.3384 227.242 44.8766 227.089 44.438C226.949 44.0352 226.732 43.6634 226.451 43.343C226.169 43.0282 225.82 42.7799 225.431 42.616C224.996 42.4358 224.529 42.3469 224.059 42.355C223.528 42.3444 223.001 42.4573 222.522 42.685C222.055 42.9255 221.666 43.2952 221.404 43.75L221.374 43.72C221.386 43.2779 221.427 42.8371 221.494 42.4C221.559 41.9469 221.687 41.5052 221.876 41.088C222.05 40.6967 222.314 40.3523 222.648 40.083C223.023 39.8024 223.484 39.661 223.953 39.683C224.404 39.6617 224.845 39.8178 225.183 40.118C225.501 40.4241 225.699 40.835 225.739 41.275ZM223.819 43.475C224.145 43.4693 224.468 43.5377 224.764 43.675C225.023 43.7978 225.254 43.9752 225.439 44.195C225.624 44.419 225.761 44.6797 225.839 44.96C225.925 45.2651 225.968 45.5809 225.967 45.898C225.968 46.2011 225.919 46.5024 225.824 46.79C225.734 47.0658 225.594 47.3227 225.412 47.548C225.231 47.7687 225.003 47.9457 224.745 48.066C224.455 48.1961 224.139 48.26 223.822 48.253C223.499 48.2587 223.18 48.1949 222.885 48.066C222.622 47.9503 222.386 47.7799 222.195 47.566C222.004 47.3465 221.859 47.0916 221.768 46.816C221.666 46.5165 221.615 46.2022 221.618 45.886C221.616 45.5681 221.664 45.2519 221.761 44.949C221.848 44.667 221.994 44.4065 222.188 44.184C222.379 43.9676 222.614 43.7939 222.878 43.674C223.173 43.5417 223.495 43.4755 223.819 43.48V43.475ZM232.999 41.435V49.195H234.274V44.365C234.282 44.173 234.319 43.9834 234.386 43.803C234.467 43.5661 234.589 43.3452 234.746 43.15C234.923 42.9294 235.142 42.746 235.391 42.61C235.683 42.4532 236.011 42.3756 236.343 42.385C236.587 42.3764 236.83 42.42 237.056 42.513C237.232 42.5915 237.385 42.7158 237.498 42.873C237.612 43.0378 237.691 43.2243 237.731 43.421C237.777 43.648 237.8 43.8792 237.799 44.111V49.195H239.074V44.365C239.061 44.1009 239.102 43.837 239.195 43.5894C239.288 43.3418 239.43 43.1157 239.614 42.925C239.812 42.7392 240.045 42.5955 240.301 42.5027C240.556 42.4099 240.827 42.3698 241.099 42.385C241.358 42.3754 241.616 42.4214 241.857 42.52C242.039 42.5996 242.197 42.7262 242.315 42.887C242.428 43.0512 242.505 43.2382 242.54 43.435C242.581 43.6576 242.601 43.8836 242.6 44.11V49.195H243.875V43.51C243.884 43.1584 243.82 42.8087 243.688 42.483C243.573 42.21 243.393 41.9696 243.163 41.783C242.923 41.5949 242.647 41.4587 242.353 41.383C242.007 41.2941 241.652 41.2511 241.296 41.255C240.807 41.2503 240.326 41.369 239.896 41.6C239.472 41.828 239.118 42.1645 238.868 42.575C238.806 42.3583 238.701 42.1564 238.559 41.9811C238.417 41.8059 238.241 41.661 238.043 41.555C237.638 41.3516 237.19 41.2487 236.738 41.255C236.241 41.2346 235.747 41.346 235.307 41.5778C234.867 41.8096 234.497 42.1536 234.233 42.575H234.203V41.435H232.999ZM245.794 41.435V49.195H247.069V44.365C247.077 44.173 247.114 43.9834 247.181 43.803C247.262 43.5661 247.384 43.3452 247.541 43.15C247.718 42.9294 247.937 42.746 248.186 42.61C248.478 42.453 248.807 42.3754 249.139 42.385C249.383 42.3764 249.626 42.42 249.852 42.513C250.028 42.5915 250.181 42.7158 250.294 42.873C250.408 43.0378 250.487 43.2243 250.527 43.421C250.573 43.648 250.596 43.8792 250.595 44.111V49.195H251.869V44.365C251.856 44.1009 251.897 43.837 251.99 43.5894C252.083 43.3418 252.225 43.1157 252.409 42.925C252.607 42.7392 252.84 42.5955 253.096 42.5027C253.351 42.4099 253.622 42.3698 253.894 42.385C254.153 42.3755 254.411 42.4216 254.651 42.52C254.833 42.5996 254.991 42.7262 255.109 42.887C255.222 43.0512 255.299 43.2382 255.334 43.435C255.375 43.6576 255.395 43.8836 255.394 44.11V49.195H256.669V43.51C256.678 43.1584 256.614 42.8087 256.482 42.483C256.367 42.21 256.187 41.9696 255.957 41.783C255.717 41.5949 255.441 41.4587 255.147 41.383C254.801 41.2941 254.446 41.2511 254.09 41.255C253.601 41.2503 253.12 41.369 252.69 41.6C252.266 41.828 251.912 42.1645 251.662 42.575C251.6 42.3583 251.495 42.1564 251.353 41.9811C251.211 41.8059 251.035 41.661 250.837 41.555C250.432 41.3516 249.984 41.2487 249.532 41.255C249.035 41.2346 248.541 41.346 248.101 41.5778C247.661 41.8096 247.291 42.1536 247.027 42.575H246.997V41.435H245.794Z" fill="#081B4D"/>
<path d="M74.4336 152.297H79.4416C79.9162 152.261 80.3932 152.321 80.844 152.474C81.2949 152.626 81.7103 152.868 82.0656 153.185C82.3716 153.519 82.6072 153.912 82.7584 154.34C82.9095 154.767 82.9732 155.22 82.9456 155.673C82.9732 156.125 82.9095 156.579 82.7584 157.006C82.6072 157.434 82.3716 157.826 82.0656 158.161C81.7103 158.478 81.2949 158.72 80.844 158.872C80.3932 159.025 79.9162 159.085 79.4416 159.049H75.9536V163.721H74.4336V152.297ZM78.9336 157.769C79.611 157.827 80.2863 157.636 80.8336 157.233C81.0411 157.032 81.2024 156.789 81.306 156.519C81.4096 156.25 81.4532 155.961 81.4336 155.673C81.4532 155.385 81.4096 155.096 81.306 154.827C81.2024 154.557 81.0411 154.314 80.8336 154.113C80.2863 153.71 79.611 153.519 78.9336 153.577H75.9576V157.769H78.9336ZM86.8656 163.897C86.5101 163.899 86.1556 163.859 85.8096 163.777C85.4948 163.704 85.1981 163.568 84.9376 163.377C84.6852 163.188 84.4821 162.941 84.3456 162.657C84.1933 162.323 84.1194 161.959 84.1296 161.593C84.114 161.195 84.1964 160.799 84.3696 160.441C84.5208 160.152 84.7372 159.903 85.0016 159.713C85.2749 159.521 85.5794 159.377 85.9016 159.289C86.2349 159.193 86.5789 159.113 86.9336 159.049C87.3069 158.974 87.6616 158.918 87.9976 158.881C88.2959 158.85 88.5914 158.797 88.8816 158.721C89.1047 158.669 89.3129 158.567 89.4896 158.421C89.5672 158.346 89.6275 158.255 89.6661 158.154C89.7048 158.053 89.721 157.945 89.7136 157.837C89.7253 157.586 89.6672 157.337 89.5456 157.117C89.4409 156.943 89.2918 156.799 89.1136 156.701C88.9293 156.602 88.7288 156.537 88.5216 156.509C88.307 156.477 88.0905 156.461 87.8736 156.461C87.3732 156.443 86.8769 156.556 86.4336 156.789C86.2302 156.923 86.0655 157.108 85.956 157.326C85.8465 157.543 85.796 157.786 85.8096 158.029H84.4496C84.4548 157.577 84.5643 157.132 84.7696 156.729C84.9533 156.386 85.2167 156.093 85.5376 155.873C85.8716 155.648 86.2447 155.488 86.6376 155.401C87.0706 155.302 87.5135 155.254 87.9576 155.257C88.3297 155.257 88.7013 155.284 89.0696 155.337C89.4201 155.385 89.759 155.496 90.0696 155.665C90.3675 155.83 90.6161 156.072 90.7896 156.365C90.9854 156.722 91.0794 157.126 91.0616 157.533V161.789C91.0544 162.024 91.0732 162.258 91.1176 162.489C91.1549 162.638 91.2803 162.713 91.4936 162.713C91.6352 162.705 91.7751 162.678 91.9096 162.633V163.689C91.6082 163.843 91.2716 163.915 90.9336 163.897C90.625 163.912 90.323 163.804 90.0936 163.597C89.9786 163.465 89.8916 163.311 89.8379 163.145C89.7843 162.979 89.7651 162.803 89.7816 162.629C89.4368 163.056 88.9896 163.389 88.4816 163.597C87.9672 163.8 87.4185 163.902 86.8656 163.897ZM87.1656 162.713C87.5576 162.722 87.948 162.66 88.3176 162.529C88.6059 162.425 88.872 162.268 89.1016 162.065C89.2916 161.896 89.4442 161.689 89.5496 161.457C89.6425 161.264 89.6943 161.055 89.7016 160.841V159.449C89.5048 159.599 89.2739 159.698 89.0296 159.737C88.7523 159.79 88.4616 159.838 88.1576 159.881L87.2376 160.009C86.95 160.045 86.6687 160.12 86.4016 160.233C86.1663 160.332 85.9599 160.489 85.8016 160.689C85.6353 160.924 85.5535 161.209 85.5696 161.497C85.5632 161.695 85.6102 161.891 85.7056 162.065C85.7925 162.216 85.913 162.344 86.0576 162.441C86.21 162.54 86.3795 162.611 86.5576 162.649C86.7586 162.693 86.9639 162.714 87.1696 162.713H87.1656ZM96.2056 163.897C95.2896 163.95 94.3826 163.691 93.6336 163.161C93.3216 162.907 93.0695 162.586 92.8952 162.223C92.721 161.86 92.6289 161.464 92.6256 161.061H94.0016C94.0002 161.317 94.0606 161.571 94.1775 161.799C94.2945 162.027 94.4646 162.224 94.6736 162.373C95.1296 162.654 95.6585 162.793 96.1936 162.773C96.7261 162.806 97.2543 162.66 97.6936 162.357C97.8594 162.236 97.9938 162.077 98.0856 161.893C98.1774 161.709 98.2241 161.506 98.2216 161.301C98.2313 161.119 98.2005 160.937 98.1313 160.768C98.0622 160.599 97.9564 160.448 97.8216 160.325C97.4235 160.052 96.9422 159.927 96.4616 159.973H95.3616V158.873H96.2416C96.6716 158.884 97.0969 158.781 97.4736 158.573C97.6466 158.466 97.7863 158.312 97.8768 158.13C97.9672 157.948 98.0049 157.744 97.9856 157.541C97.9813 157.38 97.9392 157.222 97.8628 157.081C97.7864 156.939 97.6777 156.817 97.5456 156.725C97.1641 156.465 96.7062 156.341 96.2456 156.373C96.0007 156.373 95.7566 156.4 95.5176 156.453C95.2889 156.502 95.0699 156.588 94.8696 156.709C94.6774 156.826 94.5135 156.985 94.3896 157.173C94.2552 157.384 94.1729 157.624 94.1496 157.873H92.7736C92.7866 157.425 92.9133 156.987 93.1416 156.601C93.3434 156.276 93.6171 156.003 93.9416 155.801C94.2769 155.598 94.6451 155.454 95.0296 155.377C95.4347 155.292 95.8476 155.249 96.2616 155.249C96.6651 155.246 97.0677 155.289 97.4616 155.377C97.8115 155.453 98.1449 155.591 98.4456 155.785C98.7201 155.964 98.95 156.203 99.1176 156.485C99.2894 156.787 99.3751 157.13 99.3656 157.477C99.3845 157.904 99.2384 158.322 98.9576 158.645C98.7178 158.924 98.3957 159.12 98.0376 159.205V159.237C98.2381 159.272 98.4323 159.336 98.6136 159.429C98.8074 159.526 98.9811 159.659 99.1256 159.821C99.2834 160 99.408 160.206 99.4936 160.429C99.5946 160.697 99.6435 160.982 99.6376 161.269C99.6476 161.677 99.5482 162.08 99.3496 162.437C99.1603 162.765 98.8974 163.044 98.5816 163.253C98.2445 163.474 97.8727 163.636 97.4816 163.733C97.0663 163.842 96.6388 163.897 96.2096 163.897H96.2056ZM101.262 155.449H102.622V158.749H106.814V155.449H108.174V163.721H106.814V159.913H102.622V163.721H101.262V155.449ZM110.222 155.449H111.582V158.621H114.142C114.855 158.583 115.556 158.819 116.102 159.281C116.352 159.52 116.548 159.81 116.675 160.132C116.802 160.454 116.858 160.799 116.838 161.145C116.854 161.488 116.801 161.831 116.68 162.153C116.56 162.475 116.375 162.769 116.138 163.017C115.882 163.258 115.579 163.444 115.249 163.564C114.919 163.684 114.568 163.736 114.218 163.717H110.234L110.222 155.449ZM113.714 162.521C114.855 162.521 115.426 162.062 115.426 161.145C115.426 160.238 114.855 159.785 113.714 159.785H111.586V162.521H113.714ZM118.146 155.449H119.506V163.721H118.146V155.449ZM125.074 163.897C124.479 163.91 123.888 163.801 123.338 163.577C122.86 163.376 122.436 163.068 122.098 162.677C121.757 162.275 121.504 161.806 121.354 161.301C121.183 160.737 121.098 160.15 121.102 159.561C121.096 158.975 121.194 158.393 121.39 157.841C121.569 157.336 121.844 156.872 122.202 156.473C122.545 156.09 122.964 155.783 123.434 155.573C123.925 155.356 124.457 155.247 124.994 155.253C125.635 155.229 126.27 155.387 126.826 155.709C127.299 156.001 127.698 156.398 127.994 156.869C128.288 157.341 128.494 157.863 128.602 158.409C128.711 158.93 128.756 159.461 128.738 159.993H122.546C122.534 160.34 122.577 160.687 122.674 161.021C122.765 161.339 122.924 161.633 123.138 161.885C123.361 162.143 123.64 162.348 123.954 162.485C124.323 162.642 124.721 162.718 125.122 162.709C125.624 162.73 126.12 162.59 126.538 162.309C126.925 162.01 127.186 161.576 127.266 161.093H128.61C128.491 161.92 128.062 162.671 127.41 163.193C126.73 163.679 125.909 163.927 125.074 163.897ZM127.298 158.797C127.278 158.483 127.205 158.175 127.082 157.885C126.965 157.607 126.795 157.354 126.582 157.141C126.37 156.929 126.12 156.759 125.846 156.641C125.55 156.516 125.231 156.453 124.91 156.457C124.583 156.452 124.259 156.515 123.958 156.641C123.684 156.757 123.436 156.927 123.23 157.141C123.025 157.357 122.862 157.609 122.75 157.885C122.631 158.172 122.561 158.476 122.542 158.785L127.298 158.797ZM134.598 155.453H141.346V163.721H139.986V156.649H135.954V163.721H134.594L134.598 155.453ZM143.446 155.453H144.802V156.573H144.834C145.05 156.121 145.426 155.765 145.89 155.573C146.39 155.361 146.93 155.255 147.474 155.261C148.051 155.247 148.623 155.368 149.146 155.613C149.607 155.837 150.012 156.162 150.33 156.565C150.651 156.978 150.893 157.447 151.042 157.949C151.204 158.489 151.285 159.049 151.282 159.613C151.286 160.179 151.208 160.742 151.05 161.285C150.908 161.78 150.67 162.242 150.35 162.645C150.029 163.037 149.622 163.35 149.162 163.561C148.64 163.795 148.073 163.91 147.502 163.897C147.272 163.895 147.043 163.874 146.818 163.833C146.566 163.787 146.319 163.716 146.082 163.621C145.831 163.523 145.596 163.391 145.382 163.229C145.162 163.062 144.976 162.856 144.834 162.621H144.802V166.873H143.442L143.446 155.453ZM147.362 162.713C147.768 162.726 148.171 162.632 148.53 162.441C148.842 162.268 149.108 162.021 149.302 161.721C149.5 161.407 149.641 161.06 149.718 160.697C149.803 160.308 149.846 159.911 149.846 159.513C149.846 159.132 149.795 158.752 149.694 158.385C149.599 158.032 149.442 157.698 149.23 157.401C149.021 157.112 148.747 156.876 148.43 156.713C148.074 156.535 147.679 156.447 147.282 156.457C146.875 156.444 146.473 156.538 146.114 156.729C145.801 156.903 145.533 157.147 145.33 157.441C145.122 157.744 144.973 158.083 144.89 158.441C144.799 158.813 144.753 159.194 144.754 159.577C144.754 159.974 144.804 160.369 144.902 160.753C144.989 161.112 145.143 161.452 145.358 161.753C145.569 162.046 145.846 162.285 146.166 162.453C146.537 162.636 146.948 162.726 147.362 162.713ZM156.45 163.897C155.854 163.91 155.263 163.798 154.714 163.569C154.233 163.361 153.804 163.05 153.458 162.657C153.111 162.258 152.85 161.793 152.69 161.289C152.515 160.739 152.428 160.166 152.434 159.589C152.429 159.012 152.516 158.439 152.69 157.889C152.848 157.382 153.11 156.914 153.458 156.513C153.805 156.119 154.233 155.805 154.714 155.593C155.262 155.359 155.854 155.244 156.45 155.257C157.043 155.246 157.632 155.36 158.178 155.593C158.661 155.804 159.092 156.118 159.442 156.513C159.789 156.914 160.051 157.382 160.21 157.889C160.383 158.439 160.47 159.012 160.466 159.589C160.471 160.166 160.385 160.739 160.21 161.289C160.05 161.793 159.788 162.258 159.442 162.657C159.093 163.051 158.662 163.363 158.178 163.569C157.63 163.797 157.042 163.908 156.45 163.897ZM156.45 162.713C156.794 162.715 157.135 162.644 157.45 162.505C157.764 162.366 158.045 162.162 158.274 161.905C158.522 161.62 158.709 161.288 158.826 160.929C158.965 160.498 159.033 160.046 159.026 159.593C159.033 159.14 158.965 158.688 158.826 158.257C158.708 157.896 158.521 157.561 158.274 157.273C158.047 157.012 157.766 156.805 157.45 156.665C157.135 156.526 156.794 156.455 156.45 156.457C156.105 156.455 155.765 156.526 155.45 156.665C155.134 156.805 154.852 157.012 154.626 157.273C154.379 157.561 154.191 157.896 154.074 158.257C153.934 158.688 153.866 159.14 153.874 159.593C153.866 160.046 153.934 160.498 154.074 160.929C154.19 161.288 154.378 161.62 154.626 161.905C154.854 162.162 155.135 162.366 155.45 162.505C155.765 162.644 156.105 162.715 156.45 162.713ZM161.09 162.521H162.066C162.211 162.225 162.332 161.917 162.426 161.601C162.548 161.212 162.66 160.778 162.762 160.301C162.863 159.824 162.946 159.32 163.01 158.789C163.071 158.269 163.102 157.745 163.102 157.221V155.449H169.086V162.521H170.206V166.233H168.906V163.721H162.386V166.233H161.086L161.09 162.521ZM167.73 162.521V156.649H164.43V157.349C164.43 157.87 164.4 158.391 164.342 158.909C164.283 159.426 164.206 159.914 164.11 160.373C164.014 160.832 163.911 161.248 163.802 161.621C163.715 161.929 163.605 162.229 163.474 162.521H167.73ZM172.338 167.021C172.177 167.021 172.017 167.01 171.858 166.989C171.699 166.968 171.544 166.931 171.394 166.877V165.621L171.786 165.749C171.917 165.791 172.055 165.813 172.194 165.813C172.433 165.824 172.669 165.757 172.866 165.621C173.055 165.47 173.208 165.279 173.314 165.061L173.874 163.669L170.594 155.445H172.13L174.546 162.221H174.578L176.902 155.449H178.342L174.742 164.809C174.607 165.16 174.449 165.502 174.27 165.833C174.135 166.084 173.962 166.314 173.758 166.513C173.579 166.684 173.367 166.815 173.134 166.897C172.877 166.983 172.608 167.025 172.338 167.021ZM179.49 155.449H180.85V159.401L184.642 155.449H186.45L182.786 159.033L186.882 163.721H185.138L181.682 159.785L180.85 160.601V163.721H179.49V155.449ZM189.902 156.649H186.942V155.449H194.222V156.649H191.262V163.721H189.902V156.649ZM195.31 155.449H196.67V158.621H199.23C199.941 158.586 200.639 158.823 201.182 159.285C201.432 159.524 201.628 159.814 201.755 160.136C201.882 160.458 201.938 160.803 201.918 161.149C201.934 161.492 201.881 161.835 201.76 162.157C201.64 162.479 201.455 162.773 201.218 163.021C200.962 163.261 200.661 163.447 200.331 163.567C200.002 163.687 199.652 163.74 199.302 163.721H195.314L195.31 155.449ZM198.802 162.521C199.943 162.521 200.514 162.062 200.514 161.145C200.514 160.238 199.943 159.785 198.802 159.785H196.674V162.521H198.802ZM203.234 155.449H204.594V163.721H203.234V155.449Z" fill="#555555"/>
<path d="M316.39 163.977C315.592 163.995 314.801 163.839 314.07 163.521C313.431 163.234 312.867 162.805 312.422 162.265C311.972 161.707 311.637 161.065 311.438 160.377C311.216 159.618 311.106 158.831 311.114 158.041C311.108 157.246 311.227 156.455 311.466 155.697C311.683 154.999 312.033 154.35 312.498 153.785C312.958 153.236 313.534 152.796 314.186 152.497C314.917 152.169 315.712 152.007 316.514 152.021C317.089 152.017 317.662 152.098 318.214 152.261C318.726 152.409 319.208 152.646 319.638 152.961C320.058 153.275 320.411 153.669 320.678 154.121C320.965 154.615 321.15 155.162 321.222 155.729H319.702C319.578 154.999 319.173 154.347 318.574 153.913C317.963 153.499 317.239 153.286 316.502 153.305C315.895 153.288 315.293 153.42 314.75 153.689C314.275 153.936 313.864 154.289 313.55 154.721C313.227 155.167 312.989 155.669 312.85 156.201C312.699 156.765 312.624 157.346 312.626 157.929C312.622 158.552 312.697 159.173 312.85 159.777C312.984 160.324 313.222 160.84 313.55 161.297C313.866 161.731 314.28 162.084 314.758 162.329C315.304 162.598 315.908 162.73 316.518 162.713C316.972 162.72 317.424 162.636 317.846 162.465C318.228 162.308 318.574 162.074 318.862 161.777C319.15 161.475 319.376 161.119 319.526 160.729C319.688 160.31 319.786 159.869 319.814 159.421H321.334C321.267 160.685 320.74 161.882 319.854 162.785C318.9 163.622 317.656 164.05 316.39 163.977ZM327.958 160.361C327.626 160.492 327.283 160.593 326.934 160.661C326.481 160.759 326.02 160.807 325.558 160.805C324.768 160.882 323.98 160.644 323.366 160.141C323.138 159.89 322.964 159.596 322.852 159.277C322.74 158.957 322.693 158.619 322.714 158.281V155.449H324.074V158.057C324.038 158.493 324.173 158.926 324.45 159.265C324.836 159.571 325.328 159.712 325.818 159.657C326.221 159.657 326.623 159.614 327.018 159.529C327.341 159.466 327.658 159.369 327.962 159.241V155.449H329.322V163.721H327.962L327.958 160.361ZM331.366 155.449H332.726V162.201L336.626 155.449H338.37V163.721H337.014V156.969L333.114 163.721H331.37L331.366 155.449ZM342.422 156.649H339.462V155.449H346.742V156.649H343.782V163.721H342.422V156.649ZM350.114 163.897C349.758 163.899 349.404 163.859 349.058 163.777C348.743 163.704 348.446 163.568 348.186 163.377C347.933 163.188 347.73 162.941 347.594 162.657C347.441 162.324 347.367 161.96 347.378 161.593C347.362 161.195 347.444 160.8 347.618 160.441C347.769 160.153 347.985 159.903 348.25 159.713C348.523 159.521 348.827 159.377 349.15 159.289C349.483 159.193 349.827 159.113 350.182 159.049C350.555 158.974 350.91 158.918 351.246 158.881C351.545 158.85 351.842 158.797 352.134 158.721C352.357 158.669 352.565 158.567 352.742 158.421C352.819 158.346 352.879 158.255 352.918 158.154C352.957 158.053 352.973 157.945 352.966 157.837C352.977 157.586 352.919 157.337 352.798 157.117C352.693 156.943 352.544 156.799 352.366 156.701C352.181 156.602 351.981 156.537 351.774 156.509C351.559 156.477 351.342 156.461 351.126 156.461C350.625 156.443 350.129 156.556 349.686 156.789C349.482 156.923 349.318 157.108 349.208 157.326C349.099 157.543 349.048 157.786 349.062 158.029H347.702C347.707 157.577 347.816 157.132 348.022 156.729C348.205 156.386 348.469 156.093 348.79 155.873C349.124 155.648 349.497 155.488 349.89 155.401C350.323 155.303 350.766 155.254 351.21 155.257C351.582 155.257 351.953 155.284 352.322 155.337C352.672 155.385 353.011 155.496 353.322 155.665C353.62 155.83 353.868 156.072 354.042 156.365C354.237 156.721 354.331 157.123 354.314 157.529V161.785C354.306 162.02 354.325 162.254 354.37 162.485C354.407 162.634 354.532 162.709 354.746 162.709C354.887 162.701 355.027 162.674 355.162 162.629V163.689C354.86 163.843 354.524 163.915 354.186 163.897C353.877 163.912 353.575 163.804 353.346 163.597C353.231 163.465 353.144 163.312 353.09 163.145C353.036 162.979 353.017 162.803 353.034 162.629C352.689 163.056 352.242 163.389 351.734 163.597C351.218 163.8 350.668 163.902 350.114 163.897ZM350.414 162.713C350.806 162.722 351.196 162.66 351.566 162.529C351.854 162.425 352.12 162.268 352.35 162.065C352.54 161.896 352.692 161.689 352.798 161.457C352.888 161.264 352.937 161.054 352.942 160.841V159.449C352.745 159.599 352.514 159.698 352.27 159.737C351.992 159.79 351.702 159.838 351.398 159.881L350.478 160.009C350.191 160.045 349.911 160.121 349.646 160.233C349.41 160.332 349.204 160.489 349.046 160.689C348.879 160.924 348.798 161.209 348.814 161.497C348.807 161.695 348.854 161.891 348.95 162.065C349.037 162.216 349.157 162.344 349.302 162.441C349.454 162.541 349.624 162.611 349.802 162.649C350.005 162.693 350.213 162.715 350.422 162.713H350.414ZM359.934 163.897C359.339 163.91 358.748 163.801 358.198 163.577C357.721 163.376 357.296 163.068 356.958 162.677C356.617 162.275 356.364 161.806 356.214 161.301C356.047 160.736 355.966 160.15 355.974 159.561C355.968 158.975 356.066 158.393 356.262 157.841C356.439 157.337 356.714 156.872 357.07 156.473C357.413 156.09 357.832 155.783 358.302 155.573C358.793 155.356 359.325 155.247 359.862 155.253C360.503 155.229 361.138 155.387 361.694 155.709C362.167 156.001 362.566 156.398 362.862 156.869C363.156 157.34 363.362 157.86 363.47 158.405C363.579 158.926 363.624 159.457 363.606 159.989H357.414C357.401 160.338 357.444 160.686 357.542 161.021C357.633 161.339 357.792 161.633 358.006 161.885C358.229 162.143 358.508 162.348 358.822 162.485C359.191 162.642 359.589 162.718 359.99 162.709C360.492 162.73 360.988 162.59 361.406 162.309C361.793 162.01 362.054 161.576 362.134 161.093H363.478C363.359 161.92 362.93 162.671 362.278 163.193C361.598 163.679 360.777 163.927 359.942 163.897H359.934ZM362.158 158.797C362.138 158.483 362.065 158.175 361.942 157.885C361.825 157.607 361.655 157.354 361.442 157.141C361.23 156.929 360.98 156.759 360.706 156.641C360.41 156.516 360.091 156.453 359.77 156.457C359.443 156.452 359.119 156.515 358.818 156.641C358.544 156.757 358.296 156.927 358.09 157.141C357.885 157.357 357.722 157.61 357.61 157.885C357.492 158.172 357.421 158.476 357.402 158.785L362.158 158.797ZM367.014 156.649H364.054V155.449H371.334V156.649H368.374V163.721H367.014V156.649ZM375.846 163.897C375.274 163.909 374.706 163.807 374.174 163.597C373.707 163.407 373.29 163.112 372.958 162.733C372.624 162.345 372.374 161.893 372.222 161.405C372.05 160.851 371.966 160.273 371.974 159.693C371.969 159.104 372.05 158.518 372.214 157.953C372.36 157.44 372.608 156.961 372.942 156.545C373.27 156.142 373.686 155.82 374.158 155.601C374.698 155.36 375.286 155.243 375.878 155.257C376.323 155.254 376.767 155.31 377.198 155.425C377.59 155.528 377.959 155.705 378.286 155.945C378.604 156.183 378.868 156.486 379.062 156.833C379.275 157.226 379.406 157.659 379.446 158.105H378.038C377.96 157.634 377.723 157.205 377.366 156.889C376.974 156.584 376.485 156.431 375.99 156.457C375.563 156.442 375.139 156.536 374.758 156.729C374.438 156.9 374.166 157.147 373.966 157.449C373.762 157.764 373.618 158.114 373.542 158.481C373.455 158.878 373.413 159.283 373.414 159.689C373.413 160.067 373.458 160.443 373.55 160.809C373.633 161.154 373.776 161.482 373.974 161.777C374.165 162.059 374.42 162.292 374.718 162.457C375.06 162.637 375.443 162.725 375.83 162.713C376.403 162.747 376.968 162.558 377.406 162.185C377.808 161.788 378.056 161.26 378.106 160.697H379.498C379.412 161.599 379.008 162.442 378.358 163.073C377.655 163.655 376.757 163.95 375.846 163.897ZM382.758 160.489C382.193 160.416 381.678 160.13 381.318 159.689C380.932 159.208 380.734 158.605 380.758 157.989C380.741 157.648 380.795 157.308 380.915 156.988C381.035 156.669 381.22 156.378 381.458 156.133C381.712 155.896 382.011 155.713 382.337 155.595C382.664 155.477 383.011 155.426 383.358 155.445H387.55V163.721H386.19V160.537H384.374L381.846 163.721H380.038L382.758 160.489ZM386.182 159.369V156.649H383.782C383.333 156.609 382.887 156.742 382.534 157.021C382.404 157.15 382.303 157.305 382.236 157.476C382.17 157.647 382.141 157.83 382.15 158.013C382.139 158.197 382.168 158.382 382.234 158.554C382.3 158.727 382.402 158.883 382.534 159.013C382.89 159.285 383.335 159.414 383.782 159.373L386.182 159.369ZM397.606 163.897C397.01 163.91 396.419 163.798 395.87 163.569C395.389 163.361 394.96 163.05 394.614 162.657C394.267 162.258 394.006 161.793 393.846 161.289C393.671 160.74 393.584 160.166 393.59 159.589C393.585 159.012 393.672 158.439 393.846 157.889C394.004 157.382 394.266 156.914 394.614 156.513C394.961 156.119 395.389 155.805 395.87 155.593C396.418 155.359 397.01 155.244 397.606 155.257C398.199 155.246 398.788 155.36 399.334 155.593C399.817 155.804 400.248 156.118 400.598 156.513C400.945 156.914 401.207 157.382 401.366 157.889C401.539 158.439 401.626 159.012 401.622 159.589C401.627 160.166 401.541 160.74 401.366 161.289C401.206 161.793 400.944 162.258 400.598 162.657C400.249 163.051 399.818 163.363 399.334 163.569C398.786 163.797 398.198 163.908 397.606 163.897ZM397.606 162.713C397.95 162.715 398.291 162.644 398.606 162.505C398.92 162.366 399.201 162.162 399.43 161.905C399.678 161.62 399.865 161.288 399.982 160.929C400.121 160.498 400.189 160.046 400.182 159.593C400.189 159.14 400.121 158.688 399.982 158.257C399.864 157.896 399.677 157.561 399.43 157.273C399.203 157.012 398.922 156.805 398.606 156.665C398.291 156.526 397.95 156.455 397.606 156.457C397.261 156.455 396.921 156.526 396.606 156.665C396.29 156.805 396.008 157.012 395.782 157.273C395.535 157.561 395.347 157.896 395.23 158.257C395.09 158.688 395.022 159.14 395.03 159.593C395.022 160.046 395.09 160.498 395.23 160.929C395.346 161.288 395.534 161.62 395.782 161.905C396.01 162.162 396.291 162.366 396.606 162.505C396.921 162.644 397.261 162.715 397.606 162.713ZM402.246 162.521H403.222C403.368 162.225 403.488 161.917 403.582 161.601C403.704 161.212 403.816 160.778 403.918 160.301C404.019 159.824 404.102 159.32 404.166 158.789C404.23 158.269 404.264 157.745 404.266 157.221V155.449H410.25V162.521H411.37V166.233H410.07V163.721H403.542V166.233H402.242L402.246 162.521ZM408.886 162.521V156.649H405.586V157.349C405.586 157.87 405.556 158.391 405.498 158.909C405.439 159.426 405.362 159.914 405.266 160.373C405.17 160.832 405.067 161.248 404.958 161.621C404.871 161.929 404.761 162.23 404.63 162.521H408.886ZM412.646 155.449H414.006V158.749H418.198V155.449H419.558V163.721H418.198V159.913H414.006V163.721H412.646V155.449ZM421.606 155.449H422.966V162.201L426.866 155.449H428.614V163.721H427.254V156.969L423.35 163.721H421.606V155.449ZM430.662 155.449H432.614L435.126 162.149H435.158L437.67 155.449H439.622V163.721H438.262V157.161L435.766 163.721H434.514L432.014 157.161V163.721H430.654L430.662 155.449ZM446.118 155.449H452.87V163.721H451.514V156.649H447.478V163.721H446.114L446.118 155.449ZM454.966 155.449H456.326V156.569H456.358C456.575 156.117 456.951 155.761 457.414 155.569C457.914 155.357 458.454 155.251 458.998 155.257C459.575 155.243 460.147 155.364 460.67 155.609C461.131 155.833 461.536 156.158 461.854 156.561C462.175 156.974 462.417 157.443 462.566 157.945C462.728 158.485 462.809 159.045 462.806 159.609C462.81 160.175 462.732 160.738 462.574 161.281C462.432 161.776 462.194 162.238 461.874 162.641C461.554 163.034 461.149 163.349 460.69 163.561C460.169 163.795 459.604 163.909 459.034 163.897C458.803 163.895 458.573 163.874 458.346 163.833C458.092 163.788 457.844 163.717 457.606 163.621C457.355 163.523 457.12 163.391 456.906 163.229C456.684 163.061 456.497 162.852 456.354 162.613H456.322V166.873H454.962L454.966 155.449ZM458.886 162.713C459.292 162.726 459.695 162.632 460.054 162.441C460.365 162.268 460.629 162.021 460.822 161.721C461.02 161.407 461.161 161.06 461.238 160.697C461.323 160.308 461.366 159.911 461.366 159.513C461.366 159.132 461.315 158.752 461.214 158.385C461.119 158.032 460.962 157.698 460.75 157.401C460.541 157.112 460.267 156.876 459.95 156.713C459.595 156.536 459.202 156.448 458.806 156.457C458.399 156.444 457.997 156.538 457.638 156.729C457.325 156.903 457.057 157.147 456.854 157.441C456.647 157.744 456.497 158.083 456.414 158.441C456.323 158.813 456.277 159.194 456.278 159.577C456.277 159.973 456.325 160.369 456.422 160.753C456.509 161.112 456.663 161.452 456.878 161.753C457.089 162.046 457.366 162.285 457.686 162.453C458.058 162.637 458.47 162.726 458.886 162.713ZM467.974 163.897C467.378 163.91 466.787 163.798 466.238 163.569C465.757 163.361 465.328 163.05 464.982 162.657C464.635 162.258 464.374 161.793 464.214 161.289C464.039 160.74 463.952 160.166 463.958 159.589C463.953 159.012 464.04 158.439 464.214 157.889C464.372 157.382 464.634 156.914 464.982 156.513C465.329 156.119 465.757 155.805 466.238 155.593C466.786 155.359 467.378 155.244 467.974 155.257C468.567 155.246 469.156 155.36 469.702 155.593C470.185 155.804 470.616 156.118 470.966 156.513C471.313 156.914 471.575 157.382 471.734 157.889C471.907 158.439 471.994 159.012 471.99 159.589C471.995 160.166 471.909 160.74 471.734 161.289C471.574 161.793 471.312 162.258 470.966 162.657C470.617 163.051 470.186 163.363 469.702 163.569C469.154 163.797 468.566 163.908 467.974 163.897ZM467.974 162.713C468.318 162.715 468.659 162.644 468.974 162.505C469.288 162.366 469.569 162.162 469.798 161.905C470.046 161.62 470.233 161.288 470.35 160.929C470.489 160.498 470.557 160.046 470.55 159.593C470.557 159.14 470.489 158.688 470.35 158.257C470.232 157.896 470.045 157.561 469.798 157.273C469.571 157.012 469.29 156.805 468.974 156.665C468.659 156.526 468.318 156.455 467.974 156.457C467.629 156.455 467.289 156.526 466.974 156.665C466.658 156.805 466.376 157.012 466.15 157.273C465.903 157.561 465.715 157.896 465.598 158.257C465.458 158.688 465.39 159.14 465.398 159.593C465.39 160.046 465.458 160.498 465.598 160.929C465.714 161.288 465.902 161.62 466.15 161.905C466.378 162.162 466.659 162.366 466.974 162.505C467.289 162.644 467.629 162.715 467.974 162.713ZM472.614 162.521H473.59C473.736 162.225 473.856 161.917 473.95 161.601C474.072 161.212 474.184 160.778 474.286 160.301C474.387 159.824 474.47 159.32 474.534 158.789C474.598 158.269 474.632 157.745 474.634 157.221V155.449H480.614V162.521H481.734V166.233H480.434V163.721H473.914V166.233H472.614V162.521ZM479.254 162.521V156.649H475.954V157.349C475.954 157.87 475.924 158.391 475.866 158.909C475.807 159.426 475.73 159.914 475.634 160.373C475.538 160.832 475.435 161.248 475.326 161.621C475.239 161.929 475.129 162.23 474.998 162.521H479.254ZM483.862 167.021C483.701 167.021 483.541 167.01 483.382 166.989C483.223 166.968 483.068 166.931 482.918 166.877V165.621L483.31 165.749C483.44 165.794 483.576 165.818 483.714 165.821C483.953 165.832 484.189 165.765 484.386 165.629C484.575 165.478 484.728 165.287 484.834 165.069L485.394 163.677L482.114 155.449H483.654L486.07 162.221H486.102L488.422 155.453H489.862L486.262 164.813C486.127 165.164 485.969 165.506 485.79 165.837C485.655 166.088 485.482 166.318 485.278 166.517C485.099 166.688 484.887 166.819 484.654 166.901C484.398 166.985 484.13 167.026 483.862 167.021ZM491.014 155.449H492.374V159.401L496.166 155.449H497.974L494.314 159.033L498.406 163.721H496.662L493.206 159.785L492.374 160.601V163.721H491.014V155.449ZM501.43 156.649H498.47V155.449H505.75V156.649H502.79V163.721H501.43V156.649ZM510.406 163.897C509.81 163.91 509.219 163.798 508.67 163.569C508.189 163.361 507.76 163.05 507.414 162.657C507.067 162.258 506.806 161.793 506.646 161.289C506.471 160.74 506.384 160.166 506.39 159.589C506.385 159.012 506.472 158.439 506.646 157.889C506.804 157.382 507.066 156.914 507.414 156.513C507.761 156.119 508.189 155.805 508.67 155.593C509.218 155.359 509.81 155.244 510.406 155.257C510.999 155.246 511.588 155.36 512.134 155.593C512.617 155.804 513.048 156.118 513.398 156.513C513.745 156.914 514.007 157.382 514.166 157.889C514.339 158.439 514.426 159.012 514.422 159.589C514.427 160.166 514.341 160.74 514.166 161.289C514.006 161.793 513.744 162.258 513.398 162.657C513.049 163.051 512.618 163.363 512.134 163.569C511.586 163.797 510.998 163.908 510.406 163.897ZM510.406 162.713C510.75 162.715 511.091 162.644 511.406 162.505C511.72 162.366 512.001 162.162 512.23 161.905C512.478 161.62 512.665 161.288 512.782 160.929C512.921 160.498 512.989 160.046 512.982 159.593C512.989 159.14 512.921 158.688 512.782 158.257C512.664 157.896 512.477 157.561 512.23 157.273C512.003 157.012 511.722 156.805 511.406 156.665C511.091 156.526 510.75 156.455 510.406 156.457C510.061 156.455 509.721 156.526 509.406 156.665C509.09 156.805 508.808 157.012 508.582 157.273C508.335 157.561 508.147 157.896 508.03 158.257C507.89 158.688 507.822 159.14 507.83 159.593C507.822 160.046 507.89 160.498 508.03 160.929C508.146 161.288 508.334 161.62 508.582 161.905C508.81 162.162 509.091 162.366 509.406 162.505C509.721 162.644 510.061 162.715 510.406 162.713ZM516.022 155.449H517.974L520.486 162.149H520.518L523.03 155.449H524.982V163.721H523.622V157.161L521.126 163.721H519.878L517.378 157.161V163.721H516.018L516.022 155.449Z" fill="#555555"/>
<path d="M418.988 135.091H417.488V81.4709H418.988V135.091Z" fill="#DFE2EC"/>
<path d="M418.237 136.532L411.707 130.002L412.768 128.941L418.238 134.411L423.708 128.941L424.769 130.002L418.237 136.532Z" fill="#DFE2EC"/>
<path fill-rule="evenodd" clip-rule="evenodd" d="M335.118 78.8209L371.597 28.4509L370.382 27.5709L333.616 78.3409C333.45 78.1795 333.319 77.9867 333.228 77.7738C333.138 77.5609 333.091 77.3322 333.09 77.101V10.8009C333.09 10.343 333.272 9.90395 333.595 9.57971C333.918 9.25547 334.357 9.07251 334.815 9.07092H469.69L437.134 54.031L438.349 54.9109L471.542 9.07092H479.442L458.834 37.531L460.049 38.4109L481.29 9.07092H495.617C496.075 9.07277 496.513 9.25578 496.836 9.57996C497.16 9.90414 497.341 10.3431 497.342 10.8009V77.101C497.341 77.5577 497.159 77.9953 496.835 78.3177C496.512 78.6402 496.074 78.8212 495.617 78.8209H335.118Z" fill="#EAF0FF"/>
<path d="M499.611 75.8209H340.811C339.559 75.8201 338.358 75.3227 337.472 74.4379C336.587 73.553 336.088 72.353 336.086 71.101V6.71094H337.586V71.101C337.588 71.9553 337.928 72.7741 338.533 73.3778C339.137 73.9815 339.957 74.3207 340.811 74.3209H499.611V75.8209Z" fill="#DFE2EC"/>
<path d="M334.815 6.07092H495.615C496.868 6.07304 498.07 6.57225 498.955 7.45898C499.841 8.34572 500.339 9.54754 500.34 10.8009V77.101C500.338 78.353 499.839 79.553 498.953 80.4379C498.068 81.3227 496.867 81.8201 495.615 81.8209H334.815C333.563 81.8201 332.362 81.3227 331.476 80.4379C330.591 79.553 330.092 78.353 330.09 77.101V10.8009C330.091 9.54754 330.589 8.34572 331.474 7.45898C332.36 6.57225 333.562 6.07304 334.815 6.07092ZM495.615 80.3209C496.469 80.3207 497.289 79.9815 497.893 79.3778C498.498 78.7741 498.838 77.9553 498.84 77.101V10.8009C498.84 9.9452 498.5 9.12458 497.895 8.51904C497.291 7.9135 496.471 7.57251 495.615 7.57092H334.815C333.959 7.57251 333.139 7.9135 332.534 8.51904C331.93 9.12458 331.59 9.9452 331.59 10.8009V77.101C331.591 77.9553 331.932 78.7741 332.536 79.3778C333.141 79.9815 333.961 80.3207 334.815 80.3209H495.615Z" fill="#081B4D"/>
<path d="M501.615 75.8209H499.615V74.3209H501.615C502.469 74.3207 503.289 73.9815 503.893 73.3778C504.498 72.7741 504.838 71.9553 504.84 71.101V4.8009C504.84 3.9452 504.5 3.12458 503.895 2.51904C503.291 1.9135 502.471 1.57251 501.615 1.57092H340.815C339.959 1.57251 339.139 1.9135 338.534 2.51904C337.93 3.12458 337.59 3.9452 337.59 4.8009V6.71094H336.09V4.8009C336.091 3.54754 336.589 2.34572 337.474 1.45898C338.36 0.572253 339.561 0.0730411 340.815 0.0709229H501.615C502.868 0.0730411 504.07 0.572253 504.955 1.45898C505.841 2.34572 506.339 3.54754 506.34 4.8009V71.101C506.338 72.353 505.839 73.553 504.953 74.4379C504.067 75.3227 502.867 75.8201 501.615 75.8209Z" fill="#081B4D"/>
<path d="M369.836 28.52V39.23H371.261V34.33H376.181V33.13H371.261V29.72H376.871V28.52H369.836ZM378.311 28.52V39.23H379.586V28.52H378.311ZM388.436 39.2C388.154 39.3445 387.838 39.4118 387.521 39.395C387.232 39.4099 386.949 39.3103 386.733 39.118C386.625 38.9944 386.544 38.8502 386.494 38.6941C386.443 38.538 386.425 38.3732 386.441 38.21C386.117 38.6111 385.697 38.9235 385.219 39.118C384.739 39.3057 384.227 39.3997 383.711 39.395C383.374 39.3969 383.038 39.3566 382.711 39.275C382.419 39.2036 382.144 39.0763 381.901 38.9C381.665 38.7252 381.475 38.4951 381.348 38.23C381.206 37.9164 381.137 37.5743 381.148 37.23C381.133 36.857 381.211 36.4861 381.373 36.15C381.515 35.8797 381.717 35.6462 381.965 35.468C382.22 35.2873 382.504 35.152 382.805 35.068C383.12 34.978 383.443 34.903 383.773 34.843C384.123 34.773 384.456 34.7203 384.773 34.685C385.054 34.6562 385.333 34.6061 385.606 34.535C385.816 34.4855 386.011 34.3879 386.176 34.25C386.249 34.1793 386.305 34.0937 386.341 33.9991C386.378 33.9044 386.393 33.8031 386.386 33.702C386.397 33.4668 386.343 33.2331 386.229 33.027C386.132 32.8642 385.994 32.7297 385.829 32.637C385.656 32.5444 385.468 32.4835 385.274 32.457C385.073 32.4273 384.87 32.4122 384.666 32.412C384.197 32.3953 383.732 32.5011 383.316 32.719C383.122 32.8442 382.965 33.0185 382.861 33.2242C382.756 33.4299 382.708 33.6596 382.721 33.89H381.446C381.452 33.4673 381.554 33.0516 381.746 32.675C381.919 32.3546 382.166 32.0802 382.466 31.875C382.778 31.6639 383.127 31.5129 383.494 31.43C383.9 31.3377 384.315 31.2924 384.731 31.295C385.08 31.2949 385.428 31.32 385.773 31.37C386.101 31.4145 386.419 31.5185 386.71 31.677C386.989 31.8308 387.222 32.0558 387.385 32.329C387.57 32.6653 387.658 33.0459 387.64 33.429V37.419C387.633 37.6402 387.65 37.8616 387.692 38.079C387.727 38.219 387.844 38.289 388.045 38.289C388.178 38.2847 388.31 38.2594 388.435 38.214L388.436 39.2ZM386.366 35.23C386.178 35.362 385.963 35.4514 385.736 35.492C385.476 35.5473 385.203 35.5923 384.918 35.627C384.633 35.6617 384.345 35.7017 384.056 35.747C383.788 35.7857 383.526 35.8586 383.276 35.964C383.055 36.0569 382.862 36.2041 382.713 36.392C382.558 36.6127 382.481 36.8794 382.496 37.149C382.49 37.3348 382.534 37.5189 382.623 37.682C382.705 37.8234 382.817 37.9442 382.953 38.035C383.097 38.1288 383.258 38.195 383.426 38.23C383.613 38.2708 383.804 38.2909 383.996 38.29C384.364 38.2985 384.73 38.2399 385.076 38.117C385.346 38.0198 385.596 37.8722 385.811 37.682C385.989 37.5233 386.132 37.3291 386.231 37.112C386.316 36.9308 386.362 36.7339 386.366 36.534V35.23ZM391.391 31.48V29.15H390.116V31.475H388.801V32.6H390.121V37.535C390.111 37.8284 390.145 38.1216 390.221 38.405C390.277 38.6028 390.389 38.78 390.544 38.915C390.71 39.0445 390.906 39.1299 391.114 39.163C391.394 39.2115 391.677 39.234 391.961 39.23H392.936V38.105H392.351C392.188 38.1067 392.025 38.099 391.863 38.082C391.759 38.0734 391.659 38.039 391.571 37.982C391.501 37.9308 391.45 37.8565 391.429 37.772C391.401 37.6542 391.388 37.5331 391.391 37.412V32.6H392.936V31.475L391.391 31.48ZM402.641 35.62H399.071L402.611 30.42H402.641V35.62ZM403.841 35.62V28.6H402.821L397.976 35.51V36.74H402.641V39.23H403.841V36.74H405.281V35.615L403.841 35.62ZM406.856 31.48V39.23H408.131V34.4C408.139 34.208 408.177 34.0184 408.243 33.838C408.324 33.6011 408.446 33.3802 408.603 33.185C408.781 32.9644 409 32.781 409.248 32.645C409.541 32.488 409.869 32.4104 410.201 32.42C410.445 32.4114 410.688 32.455 410.914 32.548C411.091 32.6265 411.243 32.7508 411.356 32.908C411.47 33.0728 411.55 33.2593 411.589 33.456C411.636 33.683 411.659 33.9142 411.657 34.146V39.23H412.931V34.4C412.919 34.1359 412.96 33.872 413.053 33.6244C413.146 33.3768 413.288 33.1507 413.471 32.96C413.669 32.7742 413.903 32.6305 414.158 32.5377C414.413 32.4449 414.685 32.4048 414.956 32.42C415.215 32.4104 415.474 32.4564 415.714 32.555C415.896 32.6347 416.054 32.7614 416.171 32.922C416.287 33.0858 416.365 33.2728 416.401 33.47C416.442 33.6926 416.462 33.9186 416.461 34.145V39.23H417.731V33.545C417.74 33.1934 417.677 32.8438 417.544 32.518C417.429 32.245 417.249 32.0046 417.019 31.818C416.78 31.6299 416.504 31.4937 416.209 31.418C415.863 31.3307 415.508 31.2894 415.151 31.295C414.663 31.2903 414.181 31.409 413.751 31.64C413.328 31.868 412.973 32.2045 412.723 32.615C412.661 32.3986 412.557 32.1968 412.416 32.0216C412.274 31.8464 412.099 31.7013 411.901 31.595C411.497 31.3916 411.049 31.2887 410.596 31.295C410.1 31.2755 409.608 31.3873 409.169 31.6191C408.73 31.8509 408.36 32.1944 408.096 32.615H408.066V31.475L406.856 31.48ZM419.656 31.48V39.23H420.926V34.4C420.934 34.208 420.972 34.0184 421.038 33.838C421.119 33.6012 421.241 33.3802 421.398 33.185C421.576 32.9644 421.795 32.781 422.043 32.645C422.337 32.4872 422.668 32.4096 423.001 32.42C423.245 32.4114 423.488 32.455 423.714 32.548C423.891 32.6265 424.043 32.7508 424.156 32.908C424.27 33.0728 424.35 33.2593 424.389 33.456C424.436 33.683 424.459 33.9142 424.457 34.146V39.23H425.726V34.4C425.714 34.1359 425.755 33.872 425.848 33.6244C425.941 33.3768 426.083 33.1507 426.266 32.96C426.464 32.7742 426.698 32.6305 426.953 32.5377C427.208 32.4449 427.48 32.4048 427.751 32.42C428.011 32.4104 428.269 32.4564 428.509 32.555C428.691 32.6347 428.849 32.7614 428.966 32.922C429.08 33.0862 429.157 33.2732 429.191 33.47C429.232 33.6926 429.252 33.9186 429.251 34.145V39.23H430.526V33.545C430.535 33.1934 430.472 32.8438 430.339 32.518C430.224 32.245 430.044 32.0046 429.814 31.818C429.575 31.6299 429.299 31.4937 429.004 31.418C428.659 31.3291 428.304 31.2861 427.947 31.29C427.459 31.2853 426.977 31.404 426.547 31.635C426.124 31.863 425.769 32.1995 425.519 32.61C425.457 32.3933 425.352 32.1914 425.21 32.0161C425.069 31.8409 424.893 31.696 424.694 31.59C424.29 31.3866 423.842 31.2837 423.389 31.29C422.893 31.2705 422.401 31.3823 421.962 31.6141C421.523 31.8459 421.153 32.1894 420.889 32.61H420.851V31.47L419.656 31.48ZM438.251 38.03V29.72H440.651C441.219 29.7041 441.784 29.7985 442.316 29.998C442.746 30.1692 443.125 30.4482 443.416 30.808C443.713 31.1878 443.923 31.6282 444.031 32.098C444.163 32.6607 444.226 33.2372 444.219 33.815C444.231 34.3842 444.164 34.9524 444.019 35.503C443.908 35.9149 443.733 36.3069 443.501 36.665C443.312 36.9531 443.07 37.2026 442.788 37.4C442.54 37.5715 442.271 37.7103 441.988 37.813C441.741 37.9027 441.484 37.9631 441.223 37.993C441.024 38.0157 440.824 38.0284 440.623 38.031L438.251 38.03ZM436.826 28.52V39.23H440.501C441.288 39.2474 442.071 39.1203 442.811 38.855C443.427 38.6286 443.977 38.2555 444.416 37.768C444.854 37.2601 445.172 36.6603 445.346 36.013C445.557 35.2332 445.658 34.4277 445.646 33.62C445.702 32.9223 445.612 32.2207 445.383 31.5596C445.153 30.8985 444.788 30.2924 444.311 29.78C443.253 28.8806 441.887 28.4287 440.501 28.52H436.826ZM447.386 28.52V39.23H454.481V38.03H448.811V28.52H447.386ZM455.726 28.52V39.23H457.151V34.33H462.071V33.13H457.151V29.72H462.761V28.52H455.726ZM361.496 50.475H362.771V56.805L366.431 50.475H368.066V58.23H366.791V51.9L363.131 58.23H361.496V50.475ZM374.366 47.52V58.23H375.791V53.33H380.711V52.13H375.791V48.72H381.401V47.52H374.366ZM382.841 47.52V58.23H384.116V47.52H382.841ZM387.026 54.36C387.019 53.9348 387.083 53.5114 387.214 53.107C387.324 52.7686 387.5 52.4553 387.731 52.185C387.944 51.9404 388.208 51.7457 388.504 51.615C388.8 51.4849 389.119 51.4184 389.442 51.42C389.765 51.4184 390.085 51.4849 390.38 51.615C390.676 51.7459 390.94 51.9405 391.152 52.185C391.383 52.4553 391.559 52.7686 391.669 53.107C391.8 53.5114 391.864 53.9348 391.857 54.36C391.864 54.7848 391.8 55.2079 391.669 55.612C391.56 55.9488 391.384 56.26 391.152 56.527C390.938 56.7679 390.675 56.9599 390.38 57.09C390.085 57.22 389.766 57.2864 389.443 57.285C389.121 57.2864 388.801 57.22 388.506 57.09C388.211 56.9603 387.947 56.7686 387.733 56.528C387.501 56.261 387.325 55.9498 387.216 55.613C387.084 55.2087 387.02 54.7853 387.026 54.36ZM385.676 54.36C385.671 54.8994 385.752 55.436 385.916 55.95C386.066 56.4213 386.311 56.8569 386.636 57.23C386.963 57.5997 387.367 57.8918 387.821 58.085C388.334 58.2986 388.886 58.4034 389.441 58.393C389.999 58.4049 390.553 58.3 391.068 58.085C391.519 57.8904 391.921 57.5984 392.246 57.23C392.571 56.856 392.816 56.4193 392.966 55.947C393.13 55.433 393.211 54.8964 393.206 54.357C393.211 53.8144 393.13 53.2744 392.966 52.757C392.817 52.2821 392.572 51.8429 392.246 51.467C391.92 51.0976 391.518 50.8032 391.068 50.604C390.554 50.3843 390 50.2769 389.441 50.289C388.885 50.2783 388.333 50.3857 387.821 50.604C387.368 50.8018 386.963 51.0964 386.636 51.467C386.31 51.8429 386.065 52.2821 385.916 52.757C385.752 53.2754 385.671 53.8164 385.676 54.36ZM401.576 58.2C401.294 58.3462 400.978 58.4152 400.661 58.4C400.372 58.4146 400.089 58.3147 399.873 58.122C399.765 57.9984 399.684 57.8542 399.634 57.6981C399.583 57.542 399.565 57.3772 399.581 57.214C399.257 57.6151 398.837 57.9275 398.359 58.122C397.879 58.3099 397.368 58.4043 396.852 58.4C396.515 58.4019 396.179 58.3616 395.852 58.28C395.558 58.2095 395.28 58.0821 395.035 57.905C394.8 57.728 394.613 57.4963 394.488 57.23C394.346 56.9164 394.277 56.5743 394.288 56.23C394.273 55.857 394.351 55.4861 394.513 55.15C394.655 54.8796 394.858 54.6461 395.106 54.468C395.361 54.2873 395.645 54.152 395.946 54.068C396.261 53.978 396.584 53.903 396.914 53.843C397.264 53.773 397.597 53.7203 397.914 53.685C398.195 53.6562 398.473 53.606 398.746 53.535C398.956 53.4855 399.151 53.3879 399.316 53.25C399.389 53.1793 399.445 53.0937 399.481 52.9991C399.518 52.9044 399.533 52.8031 399.526 52.702C399.537 52.4668 399.483 52.2331 399.369 52.027C399.271 51.8635 399.131 51.729 398.964 51.637C398.791 51.5444 398.603 51.4835 398.409 51.457C398.208 51.4273 398.005 51.4122 397.801 51.412C397.332 51.3953 396.867 51.5011 396.451 51.719C396.26 51.8447 396.106 52.0182 396.003 52.2223C395.901 52.4264 395.853 52.6539 395.866 52.882H394.591C394.597 52.4593 394.699 52.0436 394.891 51.667C395.064 51.3466 395.311 51.0722 395.611 50.867C395.923 50.6569 396.272 50.507 396.639 50.425C397.045 50.3327 397.46 50.2874 397.876 50.29C398.225 50.2899 398.573 50.315 398.918 50.365C399.247 50.4094 399.565 50.5134 399.856 50.672C400.135 50.8261 400.368 51.0514 400.531 51.325C400.715 51.6598 400.803 52.0385 400.786 52.42V56.41C400.779 56.6312 400.796 56.8526 400.838 57.07C400.873 57.21 400.99 57.28 401.191 57.28C401.324 57.2757 401.456 57.2504 401.581 57.205L401.576 58.2ZM399.501 54.23C399.313 54.362 399.098 54.4514 398.871 54.492C398.611 54.5473 398.338 54.5923 398.053 54.627C397.768 54.6617 397.48 54.7017 397.191 54.747C396.923 54.7857 396.661 54.8586 396.411 54.964C396.191 55.0567 395.997 55.2036 395.849 55.391C395.693 55.6119 395.616 55.879 395.631 56.149C395.625 56.3346 395.67 56.5183 395.759 56.681C395.841 56.8221 395.954 56.9425 396.089 57.033C396.233 57.1285 396.393 57.1963 396.561 57.233C396.748 57.2738 396.939 57.2939 397.131 57.293C397.499 57.3015 397.865 57.2429 398.211 57.12C398.481 57.0228 398.731 56.8752 398.946 56.685C399.124 56.5263 399.267 56.3321 399.366 56.115C399.452 55.9316 399.498 55.7323 399.501 55.53V54.23ZM404.526 50.48V48.15H403.251V50.475H401.931V51.6H403.251V56.535C403.243 56.8286 403.278 57.1218 403.356 57.405C403.412 57.6026 403.524 57.7798 403.678 57.915C403.844 58.0445 404.04 58.1299 404.248 58.163C404.53 58.2119 404.815 58.2343 405.101 58.23H406.076V57.105H405.491C405.327 57.1071 405.164 57.0997 405.001 57.083C404.897 57.0744 404.797 57.04 404.709 56.983C404.639 56.9318 404.588 56.8575 404.567 56.773C404.539 56.6552 404.526 56.5341 404.529 56.413V51.6H406.074V50.475L404.526 50.48ZM415.776 54.62H412.211L415.751 49.42H415.781L415.776 54.62ZM416.976 54.62V47.595H415.961L411.116 54.51V55.74H415.781V58.23H416.981V55.74H418.421V54.615L416.976 54.62ZM419.991 50.48V58.23H421.271V53.4C421.279 53.208 421.317 53.0184 421.383 52.838C421.558 52.3289 421.916 51.9034 422.388 51.645C422.68 51.4882 423.009 51.4106 423.34 51.42C423.584 51.4111 423.827 51.4544 424.053 51.547C424.23 51.6255 424.382 51.7498 424.495 51.907C424.609 52.0718 424.689 52.2583 424.728 52.455C424.775 52.682 424.798 52.9132 424.796 53.145V58.23H426.071V53.4C426.059 53.1359 426.1 52.872 426.193 52.6244C426.286 52.3768 426.428 52.1507 426.611 51.96C426.809 51.7742 427.043 51.6305 427.298 51.5377C427.553 51.4449 427.825 51.4048 428.096 51.42C428.355 51.4104 428.614 51.4564 428.854 51.555C429.036 51.6347 429.194 51.7614 429.311 51.922C429.425 52.0862 429.502 52.2732 429.536 52.47C429.577 52.6926 429.597 52.9186 429.596 53.145V58.23H430.871V52.545C430.88 52.1931 430.817 51.8431 430.684 51.517C430.569 51.244 430.389 51.0036 430.159 50.817C429.92 50.6289 429.644 50.4927 429.349 50.417C429.004 50.3284 428.648 50.2857 428.292 50.29C427.804 50.2853 427.322 50.404 426.892 50.635C426.469 50.863 426.114 51.1995 425.864 51.61C425.802 51.3933 425.697 51.1914 425.555 51.0161C425.414 50.8409 425.238 50.696 425.039 50.59C424.635 50.3866 424.187 50.2837 423.734 50.29C423.238 50.2705 422.746 50.3823 422.307 50.6141C421.868 50.8459 421.498 51.1894 421.234 51.61H421.204V50.47L419.991 50.48ZM432.786 50.48V58.23H434.061V53.4C434.069 53.208 434.107 53.0184 434.173 52.838C434.348 52.3289 434.706 51.9034 435.178 51.645C435.47 51.4882 435.799 51.4106 436.13 51.42C436.374 51.4112 436.616 51.4545 436.842 51.547C437.019 51.6255 437.171 51.7498 437.284 51.907C437.398 52.0718 437.478 52.2583 437.517 52.455C437.564 52.682 437.586 52.9133 437.584 53.145V58.23H438.859V53.4C438.847 53.1359 438.888 52.872 438.981 52.6244C439.074 52.3768 439.216 52.1507 439.399 51.96C439.597 51.7742 439.831 51.6305 440.086 51.5377C440.341 51.4449 440.613 51.4048 440.884 51.42C441.144 51.4104 441.402 51.4564 441.642 51.555C441.824 51.6347 441.982 51.7614 442.099 51.922C442.213 52.0862 442.29 52.2732 442.324 52.47C442.365 52.6926 442.385 52.9186 442.384 53.145V58.23H443.659V52.545C443.668 52.1931 443.605 51.8431 443.472 51.517C443.357 51.244 443.177 51.0036 442.947 50.817C442.708 50.6289 442.432 50.4927 442.137 50.417C441.792 50.3284 441.436 50.2857 441.08 50.29C440.592 50.2853 440.11 50.404 439.68 50.635C439.257 50.863 438.902 51.1995 438.652 51.61C438.59 51.3933 438.485 51.1914 438.343 51.0161C438.202 50.8409 438.026 50.696 437.827 50.59C437.175 50.2755 436.432 50.2055 435.733 50.3927C435.034 50.5799 434.425 51.0119 434.017 51.61H433.987V50.47L432.786 50.48ZM451.386 52.655V48.72H454.176C454.81 48.6654 455.442 48.8431 455.954 49.22C456.149 49.408 456.3 49.6363 456.397 49.8888C456.494 50.1413 456.535 50.412 456.517 50.682C456.535 50.9531 456.494 51.2248 456.397 51.4785C456.3 51.7323 456.149 51.962 455.955 52.152C455.445 52.5336 454.811 52.7103 454.177 52.647L451.386 52.655ZM449.966 47.52V58.23H451.391V53.85H454.661C455.104 53.887 455.551 53.8328 455.972 53.691C456.394 53.5491 456.782 53.3225 457.113 53.025C457.402 52.7108 457.624 52.3417 457.768 51.9397C457.911 51.5377 457.971 51.111 457.946 50.685C457.972 50.26 457.911 49.8342 457.768 49.4333C457.625 49.0323 457.402 48.6645 457.113 48.352C456.781 48.0564 456.393 47.8304 455.971 47.6875C455.55 47.5446 455.105 47.4876 454.661 47.52H449.966ZM459.686 47.52V58.23H466.781V57.03H461.111V47.52H459.686ZM468.026 47.52V58.23H469.451V53.33H474.371V52.13H469.451V48.72H475.061V47.52H468.026Z" fill="#081B4D"/>
</svg>
