<svg width="510" height="142" viewBox="0 0 510 142" fill="none" xmlns="http://www.w3.org/2000/svg">
<path fill-rule="evenodd" clip-rule="evenodd" d="M74.1942 100.458L119.782 37.504L118.264 36.4041L72.3171 99.851C72.1091 99.6499 71.9436 99.4089 71.8308 99.1424C71.7179 98.8759 71.6599 98.5895 71.6602 98.3V15.446C71.6607 14.8744 71.888 14.3263 72.2922 13.9221C72.6964 13.5179 73.2445 13.2906 73.8162 13.29H196.441L155.756 69.475L157.274 70.575L198.755 13.291H208.625L182.871 48.856L184.389 49.9561L210.939 13.291H220.41C220.982 13.2915 221.53 13.5189 221.934 13.9231C222.338 14.3273 222.566 14.8754 222.566 15.447V98.301C222.566 98.8727 222.338 99.4207 221.934 99.825C221.53 100.229 220.982 100.457 220.41 100.457L74.1942 100.458Z" fill="#EAF0FF"/>
<path d="M76.3477 10.344V90.802C76.3482 92.1194 76.8717 93.3828 77.8033 94.3143C78.7349 95.2459 79.9982 95.7695 81.3156 95.77H225.406" stroke="#DFE2EC" stroke-width="1.5" stroke-miterlimit="79.84"/>
<path fill-rule="evenodd" clip-rule="evenodd" d="M68.8477 15.449V98.303C68.8482 99.6204 69.3717 100.884 70.3033 101.815C71.2349 102.747 72.4982 103.27 73.8156 103.271H220.408C221.725 103.27 222.988 102.747 223.92 101.815C224.852 100.884 225.375 99.6204 225.376 98.303V15.449C225.375 14.1315 224.852 12.8682 223.92 11.9366C222.988 11.0051 221.725 10.4815 220.408 10.481H73.8156C72.4982 10.4815 71.2349 11.0051 70.3033 11.9366C69.3717 12.8682 68.8482 14.1315 68.8477 15.449Z" stroke="#081B4D" stroke-width="1.5" stroke-miterlimit="79.84"/>
<path d="M225.406 95.772H227.906C229.223 95.7715 230.486 95.2479 231.418 94.3163C232.35 93.3848 232.873 92.1214 232.874 90.804V7.95105C232.873 6.63362 232.35 5.37029 231.418 4.43872C230.486 3.50715 229.223 2.98356 227.906 2.98303H81.3156C79.9982 2.98356 78.7349 3.50715 77.8033 4.43872C76.8717 5.37029 76.3482 6.63362 76.3477 7.95105V10.3441" stroke="#081B4D" stroke-width="1.5" stroke-miterlimit="79.84"/>
<path d="M59.0782 102.739V60.499C59.109 59.9235 59.0184 59.3481 58.8122 58.8099C58.606 58.2718 58.2889 57.7832 57.8814 57.3757C57.474 56.9682 56.9853 56.6511 56.4472 56.4449C55.9091 56.2387 55.3336 56.1481 54.7582 56.179H22.5982C21.6582 56.1252 20.7205 56.3185 19.8784 56.7395C19.0363 57.1606 18.3191 57.7947 17.7982 58.5789C13.0827 66.354 9.00861 74.5003 5.61618 82.937C5.12718 84.478 4.27817 87.147 4.01617 88.286C1.89706 97.5918 0.885026 107.116 1.00116 116.659C1.00116 121.577 2.14616 126.528 6.25116 126.169H27.3712" stroke="#081B4D" stroke-width="1.5" stroke-miterlimit="79.84"/>
<path fill-rule="evenodd" clip-rule="evenodd" d="M14.8231 88.9C25.1431 88.06 33.9981 84.919 45.2181 79.429C46.9571 78.378 48.248 77.419 48.578 75.109C49.229 71.909 49.6851 68.709 50.0181 65.509C50.2421 63.453 49.1971 62.582 47.6181 62.629H24.0981C20.9421 62.629 19.9111 63.519 18.8181 65.509C15.7655 71.3089 13.0705 77.2901 10.7481 83.419C9.35406 87.382 11.8561 89.177 14.8231 88.9Z" stroke="#081B4D" stroke-width="1.5" stroke-miterlimit="79.84"/>
<path fill-rule="evenodd" clip-rule="evenodd" d="M43.2399 109.939C47.3133 109.94 51.2195 111.559 54.0999 114.439C56.9804 117.319 58.5993 121.226 58.6009 125.299C58.5993 129.372 56.9804 133.278 54.0999 136.159C51.2195 139.039 47.3133 140.658 43.2399 140.659C39.1665 140.658 35.2603 139.039 32.3799 136.159C29.4994 133.278 27.8805 129.372 27.8789 125.299C27.8805 121.226 29.4994 117.319 32.3799 114.439C35.2603 111.559 39.1665 109.94 43.2399 109.939Z" stroke="#081B4D" stroke-width="1.5" stroke-miterlimit="79.84"/>
<path fill-rule="evenodd" clip-rule="evenodd" d="M43.2381 117.139C45.4021 117.14 47.4771 118 49.0073 119.53C50.5374 121.06 51.3973 123.135 51.3981 125.299C51.3973 127.463 50.5374 129.538 49.0073 131.068C47.4771 132.598 45.4021 133.458 43.2381 133.459C41.0742 133.458 38.9991 132.598 37.469 131.068C35.9389 129.538 35.0789 127.463 35.0781 125.299C35.0789 123.135 35.9389 121.06 37.469 119.53C38.9991 118 41.0742 117.14 43.2381 117.139Z" stroke="#081B4D" stroke-width="1.5" stroke-miterlimit="79.84"/>
<path fill-rule="evenodd" clip-rule="evenodd" d="M177.638 109.939C181.712 109.94 185.618 111.559 188.498 114.439C191.379 117.319 192.998 121.226 192.999 125.299C192.998 129.372 191.379 133.278 188.498 136.159C185.618 139.039 181.712 140.658 177.638 140.659C173.565 140.658 169.659 139.039 166.778 136.159C163.898 133.278 162.279 129.372 162.277 125.299C162.279 121.226 163.898 117.319 166.778 114.439C169.659 111.559 173.565 109.94 177.638 109.939Z" stroke="#081B4D" stroke-width="1.5" stroke-miterlimit="79.84"/>
<path fill-rule="evenodd" clip-rule="evenodd" d="M177.637 117.139C179.8 117.14 181.876 118 183.406 119.53C184.936 121.06 185.796 123.135 185.797 125.299C185.796 127.463 184.936 129.538 183.406 131.068C181.876 132.598 179.8 133.458 177.637 133.459C175.473 133.458 173.398 132.598 171.867 131.068C170.337 129.538 169.477 127.463 169.477 125.299C169.477 123.135 170.337 121.06 171.867 119.53C173.398 118 175.473 117.14 177.637 117.139Z" stroke="#081B4D" stroke-width="1.5" stroke-miterlimit="79.84"/>
<path d="M58.75 126.919H162.25" stroke="#081B4D" stroke-width="1.5" stroke-miterlimit="79.84"/>
<path d="M1 112.669H25" stroke="#081B4D" stroke-width="1.5" stroke-miterlimit="79.84"/>
<path d="M43.75 92.4189H53.5" stroke="#081B4D" stroke-width="1.5" stroke-miterlimit="79.84"/>
<path d="M95.6229 38.949H103.023V40.569H97.4979V43.374H102.343V44.904H97.4979V49.659H95.6229V38.949ZM104.323 38.949H106.033V49.659H104.323V38.949ZM111.448 49.869C110.88 49.8781 110.317 49.7726 109.791 49.559C109.325 49.3675 108.906 49.0787 108.561 48.712C108.219 48.34 107.958 47.9006 107.796 47.422C107.616 46.8908 107.527 46.3329 107.533 45.772C107.528 45.2166 107.618 44.6645 107.798 44.139C107.96 43.6604 108.221 43.221 108.563 42.849C108.908 42.4819 109.327 42.1928 109.793 42.001C110.319 41.7883 110.883 41.6838 111.451 41.694C112.018 41.684 112.582 41.7884 113.108 42.001C113.574 42.1928 113.993 42.4819 114.338 42.849C114.678 43.2214 114.937 43.6608 115.098 44.139C115.277 44.6652 115.366 45.2181 115.361 45.774C115.367 46.3349 115.278 46.8928 115.098 47.424C114.936 47.9026 114.675 48.342 114.333 48.714C113.988 49.0807 113.569 49.3695 113.103 49.561C112.578 49.7737 112.015 49.8784 111.448 49.869ZM111.448 48.519C111.793 48.5276 112.135 48.4448 112.438 48.279C112.713 48.1239 112.949 47.9085 113.128 47.649C113.312 47.3825 113.447 47.0856 113.528 46.772C113.613 46.4455 113.656 46.1094 113.655 45.772C113.655 45.438 113.612 45.1053 113.528 44.782C113.449 44.4674 113.314 44.1698 113.128 43.904C112.947 43.6482 112.711 43.4357 112.438 43.282C112.135 43.1162 111.793 43.0334 111.448 43.042C111.103 43.0334 110.761 43.1162 110.458 43.282C110.185 43.4357 109.949 43.6482 109.768 43.904C109.582 44.1698 109.447 44.4674 109.368 44.782C109.284 45.1053 109.241 45.438 109.241 45.772C109.24 46.1094 109.283 46.4455 109.368 46.772C109.449 47.0856 109.584 47.3825 109.768 47.649C109.947 47.9085 110.183 48.1239 110.458 48.279C110.761 48.4448 111.103 48.5276 111.448 48.519ZM123.283 47.934C123.271 48.0885 123.3 48.2435 123.365 48.384C123.402 48.433 123.451 48.4714 123.508 48.4951C123.565 48.5188 123.627 48.527 123.688 48.519H123.868C123.949 48.5177 124.029 48.5076 124.108 48.489V49.674C124.048 49.694 123.971 49.7163 123.876 49.741C123.781 49.7657 123.684 49.788 123.583 49.808C123.483 49.828 123.383 49.843 123.283 49.853C123.183 49.863 123.098 49.8683 123.028 49.869C122.724 49.8805 122.423 49.8079 122.158 49.659C122.035 49.5755 121.931 49.4667 121.854 49.34C121.776 49.2133 121.726 49.0715 121.708 48.924C121.355 49.2617 120.925 49.5088 120.455 49.644C119.991 49.7891 119.509 49.8649 119.023 49.869C118.683 49.8702 118.344 49.8221 118.018 49.726C117.713 49.6382 117.426 49.4959 117.171 49.306C116.924 49.1191 116.724 48.8778 116.586 48.601C116.435 48.2898 116.36 47.9469 116.368 47.601C116.351 47.1946 116.441 46.7909 116.631 46.431C116.797 46.1424 117.035 45.9014 117.321 45.731C117.618 45.556 117.943 45.4317 118.281 45.363C118.636 45.2883 118.993 45.2307 119.354 45.19C119.646 45.1314 119.941 45.0876 120.238 45.059C120.489 45.039 120.738 44.9961 120.981 44.931C121.172 44.8858 121.347 44.7921 121.491 44.659C121.558 44.5826 121.609 44.4935 121.642 44.397C121.674 44.3005 121.687 44.1985 121.679 44.097C121.687 43.9046 121.632 43.7149 121.522 43.557C121.42 43.4197 121.286 43.3092 121.132 43.235C120.969 43.1576 120.794 43.107 120.615 43.085C120.436 43.0606 120.256 43.0479 120.075 43.047C119.659 43.0301 119.248 43.1343 118.89 43.347C118.735 43.4492 118.606 43.5869 118.515 43.7486C118.424 43.9103 118.372 44.0914 118.365 44.277H116.655C116.667 43.8381 116.791 43.4095 117.015 43.032C117.217 42.7074 117.49 42.4337 117.815 42.232C118.153 42.0269 118.526 41.8846 118.915 41.812C119.33 41.7315 119.752 41.6913 120.175 41.692C120.553 41.6918 120.93 41.732 121.3 41.812C121.653 41.8848 121.991 42.0166 122.3 42.202C122.589 42.3765 122.833 42.6163 123.012 42.902C123.2 43.2166 123.294 43.5787 123.282 43.945L123.283 47.934ZM121.573 45.774C121.283 45.954 120.953 46.0598 120.613 46.082C120.233 46.1167 119.853 46.169 119.473 46.239C119.295 46.2687 119.12 46.3114 118.948 46.367C118.787 46.4175 118.635 46.4935 118.498 46.592C118.366 46.6895 118.26 46.8183 118.19 46.967C118.111 47.1435 118.072 47.3356 118.078 47.529C118.073 47.7038 118.131 47.8744 118.243 48.009C118.353 48.1385 118.489 48.2432 118.643 48.316C118.804 48.3932 118.976 48.4464 119.153 48.474C119.318 48.5022 119.485 48.5173 119.653 48.519C119.86 48.517 120.066 48.4918 120.268 48.444C120.488 48.394 120.699 48.3078 120.891 48.189C121.083 48.0714 121.249 47.9155 121.378 47.731C121.513 47.5297 121.581 47.2911 121.573 47.049V45.774ZM124.348 41.904H125.638V39.579H127.348V41.904H128.898V43.179H127.348V47.319C127.347 47.4743 127.354 47.6295 127.37 47.784C127.379 47.9 127.413 48.0126 127.47 48.114C127.529 48.2059 127.616 48.2762 127.718 48.314C127.862 48.3647 128.015 48.3878 128.168 48.382C128.288 48.382 128.408 48.3793 128.528 48.374C128.649 48.3686 128.77 48.3509 128.888 48.321V49.641L128.333 49.701C128.149 49.7212 127.963 49.7313 127.778 49.731C127.414 49.7415 127.05 49.6994 126.698 49.606C126.454 49.5393 126.232 49.4101 126.053 49.231C125.893 49.0564 125.784 48.8413 125.738 48.609C125.678 48.3277 125.645 48.0415 125.638 47.754V43.179H124.348V41.904ZM135.073 45.819H138.253V41.199H138.223L135.073 45.819ZM141.223 47.169H139.873V49.659H138.253V47.169H133.753V45.469L138.253 39.154H139.873V45.814H141.223V47.169ZM142.633 41.904H144.253V42.984H144.298C144.424 42.7985 144.565 42.623 144.718 42.459C144.865 42.3012 145.033 42.1648 145.218 42.054C145.418 41.9381 145.632 41.8499 145.856 41.792C146.125 41.7226 146.403 41.6889 146.681 41.692C147.139 41.6887 147.591 41.7975 147.998 42.009C148.398 42.2134 148.707 42.5617 148.861 42.984C149.128 42.6049 149.469 42.2835 149.863 42.039C150.297 41.7953 150.79 41.6759 151.288 41.694C151.978 41.651 152.659 41.8647 153.201 42.294C153.452 42.5608 153.642 42.8782 153.76 43.225C153.878 43.5717 153.92 43.9397 153.883 44.304V49.659H152.173V45.129C152.173 44.819 152.163 44.5363 152.143 44.281C152.13 44.0518 152.071 43.8274 151.971 43.621C151.877 43.4368 151.727 43.287 151.543 43.193C151.299 43.0817 151.031 43.0303 150.763 43.043C150.525 43.0219 150.285 43.0602 150.065 43.1545C149.845 43.2487 149.652 43.3959 149.503 43.583C149.216 44.0398 149.08 44.5748 149.113 45.113V49.659H147.403V44.679C147.431 44.2521 147.33 43.8267 147.111 43.459C146.979 43.3076 146.813 43.1907 146.626 43.1183C146.439 43.046 146.237 43.0205 146.038 43.044C145.817 43.0436 145.599 43.0896 145.398 43.179C145.192 43.2694 145.008 43.4023 144.858 43.569C144.694 43.7534 144.567 43.9672 144.483 44.199C144.384 44.473 144.335 44.7627 144.34 45.054V49.659H142.63L142.633 41.904ZM155.683 41.904H157.303V42.984H157.348C157.474 42.7985 157.615 42.623 157.768 42.459C157.915 42.3012 158.083 42.1648 158.268 42.054C158.467 41.9382 158.682 41.85 158.905 41.792C159.174 41.7226 159.452 41.6889 159.73 41.692C160.186 41.6888 160.637 41.797 161.042 42.007C161.442 42.2114 161.751 42.5597 161.905 42.982C162.173 42.6026 162.515 42.2812 162.91 42.037C163.344 41.7933 163.837 41.6739 164.335 41.692C165.025 41.649 165.706 41.8627 166.248 42.292C166.499 42.5588 166.689 42.8762 166.807 43.223C166.925 43.5697 166.967 43.9377 166.93 44.302V49.659H165.22V45.129C165.22 44.819 165.21 44.5363 165.19 44.281C165.177 44.0517 165.118 43.8273 165.017 43.621C164.923 43.4369 164.774 43.2872 164.59 43.193C164.346 43.0817 164.078 43.0303 163.81 43.043C163.572 43.0219 163.332 43.0602 163.112 43.1545C162.892 43.2487 162.699 43.3959 162.55 43.583C162.263 44.0398 162.127 44.5748 162.16 45.113V49.659H160.45V44.679C160.479 44.2525 160.379 43.827 160.161 43.459C160.029 43.3082 159.863 43.1918 159.676 43.12C159.489 43.0482 159.287 43.0231 159.088 43.047C158.868 43.0469 158.651 43.0928 158.45 43.182C158.244 43.2724 158.06 43.4053 157.91 43.572C157.746 43.7564 157.619 43.9702 157.535 44.202C157.436 44.476 157.387 44.7657 157.392 45.057V49.659H155.683V41.904ZM173.143 38.949H177.868C178.504 38.9259 179.138 39.0384 179.728 39.279C180.158 39.4617 180.539 39.7445 180.838 40.104C181.092 40.4211 181.274 40.7896 181.371 41.184C181.461 41.537 181.509 41.8996 181.514 42.264C181.51 42.6261 181.462 42.9864 181.371 43.337C181.272 43.7285 181.091 44.0942 180.838 44.409C180.54 44.7674 180.159 45.0478 179.728 45.226C179.137 45.4616 178.504 45.5716 177.868 45.549H175.018V49.659H173.143V38.949ZM175.018 44.019H177.763C177.981 44.0179 178.198 43.9876 178.408 43.929C178.627 43.8695 178.833 43.7702 179.016 43.636C179.207 43.4942 179.361 43.3091 179.466 43.096C179.59 42.8313 179.649 42.541 179.639 42.249C179.648 41.9518 179.597 41.6558 179.489 41.379C179.403 41.1661 179.265 40.9778 179.089 40.831C178.915 40.6965 178.713 40.6034 178.498 40.559C178.268 40.5081 178.033 40.483 177.798 40.484H175.018V44.019ZM183.148 38.949H185.023V48.039H190.468V49.659H183.148V38.949ZM191.758 38.949H199.158V40.569H193.638V43.374H198.478V44.904H193.633V49.659H191.758V38.949ZM146.233 55.069H147.763V58.099H150.778V59.629H147.763V62.659H146.233V59.629H143.218V58.099H146.233V55.069ZM95.2109 64.949H102.611V66.569H97.0909V69.374H101.936V70.904H97.0909V75.659H95.2159L95.2109 64.949ZM103.911 64.949H105.621V75.659H103.911V64.949ZM111.036 75.869C110.468 75.8782 109.904 75.7728 109.378 75.559C108.912 75.3675 108.493 75.0787 108.148 74.712C107.806 74.34 107.545 73.9006 107.383 73.422C107.203 72.8908 107.114 72.3329 107.12 71.772C107.115 71.2161 107.203 70.6632 107.383 70.137C107.545 69.6584 107.806 69.219 108.148 68.847C108.493 68.4799 108.912 68.1908 109.378 67.999C109.904 67.7863 110.468 67.6818 111.036 67.692C111.603 67.682 112.167 67.7864 112.693 67.999C113.159 68.1908 113.578 68.4799 113.923 68.847C114.265 69.219 114.526 69.6584 114.688 70.137C114.867 70.6632 114.956 71.2161 114.951 71.772C114.957 72.3329 114.868 72.8908 114.688 73.422C114.526 73.9006 114.265 74.34 113.923 74.712C113.578 75.0787 113.159 75.3675 112.693 75.559C112.167 75.7727 111.603 75.8781 111.036 75.869ZM111.036 74.519C111.381 74.5276 111.723 74.4448 112.026 74.279C112.301 74.1239 112.537 73.9085 112.716 73.649C112.9 73.3822 113.035 73.085 113.116 72.771C113.201 72.4445 113.244 72.1084 113.243 71.771C113.243 71.437 113.2 71.1043 113.116 70.781C113.037 70.4664 112.902 70.1688 112.716 69.903C112.535 69.6472 112.299 69.4347 112.026 69.281C111.723 69.1152 111.381 69.0324 111.036 69.041C110.691 69.0324 110.349 69.1152 110.046 69.281C109.773 69.4347 109.537 69.6472 109.356 69.903C109.17 70.1688 109.035 70.4664 108.956 70.781C108.872 71.1043 108.829 71.437 108.829 71.771C108.828 72.1084 108.871 72.4445 108.956 72.771C109.036 73.085 109.172 73.3822 109.356 73.649C109.535 73.9085 109.771 74.1239 110.046 74.279C110.349 74.4448 110.691 74.5276 111.036 74.519ZM122.871 73.934C122.859 74.0885 122.888 74.2435 122.953 74.384C122.99 74.433 123.039 74.4714 123.096 74.4951C123.153 74.5188 123.215 74.527 123.276 74.519H123.456C123.537 74.5177 123.617 74.5076 123.696 74.489V75.674C123.636 75.694 123.559 75.7167 123.464 75.742C123.369 75.7673 123.272 75.7897 123.171 75.809C123.071 75.829 122.971 75.844 122.871 75.854C122.771 75.864 122.686 75.869 122.616 75.869C122.312 75.8805 122.011 75.8079 121.746 75.659C121.623 75.5755 121.519 75.4667 121.442 75.34C121.364 75.2133 121.314 75.0715 121.296 74.924C120.943 75.2617 120.513 75.5088 120.043 75.644C119.579 75.7891 119.097 75.8649 118.611 75.869C118.271 75.8706 117.932 75.8227 117.606 75.727C117.301 75.6392 117.014 75.4969 116.759 75.307C116.513 75.1215 116.313 74.882 116.174 74.607C116.023 74.2958 115.948 73.9529 115.956 73.607C115.939 73.2006 116.029 72.7969 116.219 72.437C116.385 72.1484 116.623 71.9074 116.909 71.737C117.206 71.562 117.531 71.4377 117.869 71.369C118.224 71.2943 118.581 71.2367 118.942 71.196C119.235 71.1387 119.53 71.0963 119.827 71.069C120.078 71.049 120.327 71.0061 120.57 70.941C120.761 70.8926 120.936 70.7954 121.078 70.659C121.145 70.5826 121.196 70.4935 121.229 70.397C121.261 70.3005 121.274 70.1985 121.266 70.097C121.274 69.9046 121.219 69.7149 121.109 69.557C121.007 69.4193 120.873 69.3085 120.719 69.234C120.556 69.1566 120.381 69.106 120.202 69.084C120.023 69.0596 119.843 69.0469 119.662 69.046C119.246 69.0291 118.835 69.1334 118.477 69.346C118.322 69.4482 118.193 69.5859 118.102 69.7476C118.011 69.9093 117.959 70.0904 117.952 70.276H116.242C116.254 69.8371 116.378 69.4085 116.602 69.031C116.804 68.7082 117.078 68.4362 117.402 68.236C117.74 68.0309 118.113 67.8886 118.502 67.816C118.917 67.7355 119.339 67.6953 119.762 67.696C120.14 67.6958 120.517 67.736 120.887 67.816C121.24 67.8888 121.578 68.0206 121.887 68.206C122.176 68.3805 122.42 68.6203 122.599 68.906C122.787 69.2204 122.88 69.582 122.869 69.948L122.871 73.934ZM121.161 71.774C120.871 71.954 120.541 72.0598 120.201 72.082C119.821 72.1167 119.441 72.169 119.061 72.239C118.883 72.2687 118.708 72.3114 118.536 72.367C118.375 72.4175 118.223 72.4935 118.086 72.592C117.954 72.6895 117.848 72.8183 117.778 72.967C117.699 73.1435 117.66 73.3356 117.666 73.529C117.661 73.7038 117.719 73.8744 117.831 74.009C117.941 74.1385 118.077 74.2432 118.231 74.316C118.392 74.3932 118.564 74.4464 118.741 74.474C118.906 74.5022 119.073 74.5173 119.241 74.519C119.448 74.517 119.654 74.4918 119.856 74.444C120.076 74.394 120.287 74.3078 120.479 74.189C120.671 74.0714 120.837 73.9155 120.966 73.731C121.101 73.5294 121.169 73.2905 121.161 73.048V71.774ZM123.936 67.904H125.226V65.579H126.936V67.904H128.481V69.179H126.936V73.319C126.935 73.4743 126.942 73.6295 126.958 73.784C126.967 73.9 127.001 74.0126 127.058 74.114C127.117 74.2059 127.204 74.2762 127.306 74.314C127.45 74.3647 127.603 74.3878 127.756 74.382C127.876 74.382 127.996 74.3797 128.116 74.375C128.237 74.37 128.358 74.3525 128.476 74.323V75.643L127.921 75.703C127.737 75.7232 127.551 75.7333 127.366 75.733C126.999 75.7432 126.633 75.7001 126.279 75.605C126.035 75.5383 125.813 75.409 125.634 75.23C125.474 75.0554 125.365 74.8403 125.319 74.608C125.259 74.3267 125.226 74.0405 125.219 73.753V69.179H123.929L123.936 67.904ZM134.661 71.819H137.841V67.199H137.811L134.661 71.819ZM140.811 73.169H139.461V75.659H137.841V73.169H133.341V71.469L137.841 65.154H139.461V71.814H140.811V73.169ZM142.221 67.904H143.841V68.984H143.886C144.012 68.7985 144.153 68.623 144.306 68.459C144.453 68.3029 144.621 68.1683 144.806 68.059C145.006 67.9427 145.22 67.8542 145.444 67.796C145.713 67.7266 145.991 67.6929 146.269 67.696C146.725 67.6929 147.176 67.801 147.581 68.011C147.981 68.2154 148.29 68.5637 148.444 68.986C148.712 68.6066 149.054 68.2852 149.449 68.041C149.883 67.7973 150.376 67.6779 150.874 67.696C151.564 67.653 152.245 67.8667 152.787 68.296C153.038 68.5628 153.228 68.8802 153.346 69.227C153.464 69.5737 153.506 69.9417 153.469 70.306V75.659H151.761V71.129C151.761 70.819 151.751 70.5363 151.731 70.281C151.718 70.0518 151.659 69.8274 151.559 69.621C151.465 69.4372 151.315 69.2877 151.131 69.194C150.887 69.0827 150.619 69.0313 150.351 69.044C150.113 69.0229 149.873 69.0612 149.653 69.1555C149.433 69.2497 149.24 69.3969 149.091 69.584C148.804 70.0408 148.668 70.5758 148.701 71.114V75.659H146.991V70.679C147.019 70.252 146.917 69.8266 146.698 69.459C146.566 69.308 146.4 69.1914 146.213 69.1194C146.026 69.0474 145.824 69.0222 145.625 69.046C145.406 69.046 145.189 69.092 144.988 69.181C144.782 69.2714 144.598 69.4043 144.448 69.571C144.284 69.7554 144.157 69.9692 144.073 70.201C143.974 70.475 143.925 70.7647 143.93 71.056V75.659H142.22L142.221 67.904ZM155.271 67.904H156.891V68.984H156.936C157.062 68.7985 157.203 68.623 157.356 68.459C157.503 68.3029 157.671 68.1683 157.856 68.059C158.055 67.9428 158.27 67.8543 158.493 67.796C158.762 67.7266 159.04 67.6929 159.318 67.696C159.774 67.6929 160.225 67.801 160.63 68.011C161.03 68.2154 161.339 68.5637 161.493 68.986C161.761 68.6059 162.103 68.2838 162.498 68.039C162.932 67.7953 163.425 67.6759 163.923 67.694C164.613 67.651 165.294 67.8647 165.836 68.294C166.087 68.5608 166.277 68.8782 166.395 69.225C166.513 69.5717 166.555 69.9397 166.518 70.304V75.659H164.808V71.129C164.808 70.819 164.798 70.5363 164.778 70.281C164.765 70.0517 164.706 69.8273 164.605 69.621C164.511 69.4373 164.362 69.2879 164.178 69.194C163.934 69.0827 163.666 69.0313 163.398 69.044C163.16 69.0229 162.92 69.0612 162.7 69.1555C162.48 69.2497 162.287 69.3969 162.138 69.584C161.851 70.0408 161.715 70.5758 161.748 71.114V75.659H160.038V70.679C160.067 70.2524 159.966 69.8269 159.748 69.459C159.616 69.308 159.45 69.1914 159.263 69.1194C159.076 69.0474 158.874 69.0222 158.675 69.046C158.455 69.0459 158.238 69.0918 158.037 69.181C157.831 69.2714 157.647 69.4043 157.497 69.571C157.333 69.7554 157.206 69.9692 157.122 70.201C157.023 70.475 156.974 70.7647 156.979 71.056V75.659H155.271V67.904ZM172.731 64.949H177.171C177.903 64.9313 178.63 65.0747 179.301 65.369C179.875 65.6291 180.379 66.0227 180.771 66.517C181.161 67.023 181.449 67.6005 181.618 68.217C181.988 69.5824 181.988 71.0216 181.618 72.387C181.449 73.0035 181.161 73.581 180.771 74.087C180.379 74.5831 179.874 74.9782 179.298 75.239C178.627 75.5333 177.9 75.6767 177.168 75.659H172.728L172.731 64.949ZM174.606 74.129H176.451C177.062 74.1496 177.67 74.0504 178.243 73.837C178.675 73.6689 179.054 73.3894 179.343 73.027C179.614 72.6688 179.799 72.2531 179.883 71.812C180.073 70.816 180.073 69.793 179.883 68.797C179.799 68.3559 179.614 67.9402 179.343 67.582C179.054 67.2196 178.675 66.9401 178.243 66.772C177.67 66.5586 177.062 66.4594 176.451 66.48H174.605L174.606 74.129ZM183.561 64.949H185.436V74.039H190.881V75.659H183.561V64.949ZM192.171 64.949H199.571V66.569H194.051V69.374H198.896V70.904H194.046V75.659H192.171V64.949Z" fill="#081B4D"/>
<path fill-rule="evenodd" clip-rule="evenodd" d="M350.194 98.2961L395.782 35.342L394.264 34.2421L348.317 97.689C348.109 97.4879 347.944 97.2469 347.831 96.9804C347.718 96.7139 347.66 96.4275 347.66 96.1381V13.2841C347.661 12.7124 347.888 12.1643 348.292 11.7601C348.696 11.3559 349.245 11.1286 349.816 11.1281H472.441L431.756 67.313L433.274 68.413L474.755 11.129H484.625L458.871 46.694L460.389 47.7941L486.939 11.129H496.41C496.982 11.1296 497.53 11.3569 497.934 11.7611C498.338 12.1653 498.566 12.7134 498.566 13.285V96.139C498.566 96.7107 498.338 97.2588 497.934 97.663C497.53 98.0672 496.982 98.2945 496.41 98.295L350.194 98.2961Z" fill="#EAF0FF"/>
<path d="M352.348 8.18103V88.639C352.348 89.9565 352.872 91.2198 353.803 92.1514C354.735 93.0829 355.998 93.6065 357.316 93.6071H501.406" stroke="#DFE2EC" stroke-width="1.5" stroke-miterlimit="79.84"/>
<path fill-rule="evenodd" clip-rule="evenodd" d="M344.848 13.287V96.141C344.848 97.4584 345.372 98.7218 346.303 99.6533C347.235 100.585 348.498 101.108 349.816 101.109H496.408C497.725 101.108 498.988 100.585 499.92 99.6533C500.852 98.7218 501.375 97.4584 501.376 96.141V13.287C501.375 11.9696 500.852 10.7062 499.92 9.77466C498.988 8.84309 497.725 8.3195 496.408 8.31897H349.816C348.498 8.3195 347.235 8.84309 346.303 9.77466C345.372 10.7062 344.848 11.9696 344.848 13.287Z" stroke="#081B4D" stroke-width="1.5" stroke-miterlimit="79.84"/>
<path d="M501.406 93.61H503.906C505.223 93.6095 506.486 93.0859 507.418 92.1544C508.35 91.2228 508.873 89.9595 508.874 88.642V5.78906C508.873 4.47163 508.35 3.2083 507.418 2.27673C506.486 1.34517 505.223 0.821575 503.906 0.821045H357.316C355.998 0.821575 354.735 1.34517 353.803 2.27673C352.872 3.2083 352.348 4.47163 352.348 5.78906V8.18207" stroke="#081B4D" stroke-width="1.5" stroke-miterlimit="79.84"/>
<path d="M335.078 100.578V58.3381C335.109 57.7627 335.018 57.1872 334.812 56.6491C334.606 56.111 334.289 55.6223 333.881 55.2148C333.474 54.8073 332.985 54.4902 332.447 54.284C331.909 54.0778 331.334 53.9872 330.758 54.0181H298.598C297.658 53.9643 296.721 54.1576 295.878 54.5786C295.036 54.9997 294.319 55.6338 293.798 56.418C289.083 64.1931 285.009 72.3394 281.616 80.7761C281.127 82.3171 280.278 84.9861 280.016 86.1251C277.897 95.431 276.885 104.955 277.001 114.498C277.001 119.416 278.146 124.367 282.251 124.008H303.371" stroke="#081B4D" stroke-width="1.5" stroke-miterlimit="79.84"/>
<path fill-rule="evenodd" clip-rule="evenodd" d="M290.823 86.7391C301.143 85.8991 309.998 82.7581 321.218 77.2681C322.957 76.2171 324.248 75.2581 324.578 72.9481C325.229 69.7481 325.685 66.5481 326.018 63.3481C326.242 61.2921 325.197 60.4211 323.618 60.4681H300.098C296.942 60.4681 295.911 61.3581 294.818 63.3481C291.766 69.148 289.07 75.1292 286.748 81.2581C285.354 85.2211 287.856 87.0161 290.823 86.7391Z" stroke="#081B4D" stroke-width="1.5" stroke-miterlimit="79.84"/>
<path fill-rule="evenodd" clip-rule="evenodd" d="M319.24 107.778C323.313 107.779 327.22 109.398 330.1 112.278C332.98 115.159 334.599 119.065 334.601 123.138C334.599 127.211 332.98 131.118 330.1 133.998C327.22 136.878 323.313 138.497 319.24 138.498C315.166 138.497 311.26 136.878 308.38 133.998C305.499 131.118 303.88 127.211 303.879 123.138C303.88 119.065 305.499 115.159 308.38 112.278C311.26 109.398 315.166 107.779 319.24 107.778Z" stroke="#081B4D" stroke-width="1.5" stroke-miterlimit="79.84"/>
<path fill-rule="evenodd" clip-rule="evenodd" d="M319.238 114.978C321.402 114.979 323.477 115.839 325.007 117.369C326.537 118.899 327.397 120.974 327.398 123.138C327.397 125.302 326.537 127.377 325.007 128.907C323.477 130.437 321.402 131.297 319.238 131.298C317.074 131.297 314.999 130.437 313.469 128.907C311.939 127.377 311.079 125.302 311.078 123.138C311.079 120.974 311.939 118.899 313.469 117.369C314.999 115.839 317.074 114.979 319.238 114.978Z" stroke="#081B4D" stroke-width="1.5" stroke-miterlimit="79.84"/>
<path fill-rule="evenodd" clip-rule="evenodd" d="M453.638 107.778C457.712 107.779 461.618 109.398 464.498 112.278C467.379 115.159 468.998 119.065 468.999 123.138C468.998 127.211 467.379 131.118 464.498 133.998C461.618 136.878 457.712 138.497 453.638 138.498C449.565 138.497 445.659 136.878 442.778 133.998C439.898 131.118 438.279 127.211 438.277 123.138C438.279 119.065 439.898 115.159 442.778 112.278C445.659 109.398 449.565 107.779 453.638 107.778Z" stroke="#081B4D" stroke-width="1.5" stroke-miterlimit="79.84"/>
<path fill-rule="evenodd" clip-rule="evenodd" d="M453.637 114.978C455.8 114.979 457.876 115.839 459.406 117.369C460.936 118.899 461.796 120.974 461.797 123.138C461.796 125.302 460.936 127.377 459.406 128.907C457.876 130.437 455.8 131.297 453.637 131.298C451.473 131.297 449.398 130.437 447.867 128.907C446.337 127.377 445.477 125.302 445.477 123.138C445.477 120.974 446.337 118.899 447.867 117.369C449.398 115.839 451.473 114.979 453.637 114.978Z" stroke="#081B4D" stroke-width="1.5" stroke-miterlimit="79.84"/>
<path d="M334.75 124.758H438.25" stroke="#081B4D" stroke-width="1.5" stroke-miterlimit="79.84"/>
<path d="M277 110.508H301" stroke="#081B4D" stroke-width="1.5" stroke-miterlimit="79.84"/>
<path d="M319.75 90.2581H329.5" stroke="#081B4D" stroke-width="1.5" stroke-miterlimit="79.84"/>
<path d="M371.055 20.9499H375.495C376.227 20.9323 376.954 21.0756 377.625 21.3699C378.199 21.63 378.703 22.0236 379.095 22.5179C379.485 23.0239 379.773 23.6015 379.942 24.2179C380.131 24.8967 380.224 25.5984 380.22 26.3029C380.225 27.0081 380.132 27.7105 379.943 28.3899C379.774 29.0064 379.486 29.5839 379.096 30.0899C378.704 30.5851 378.2 30.9794 377.625 31.2399C376.954 31.5343 376.227 31.6776 375.495 31.6599H371.055V20.9499ZM372.93 30.1299H374.775C375.385 30.1502 375.994 30.0507 376.567 29.8369C376.998 29.6688 377.378 29.3894 377.667 29.0269C377.938 28.6688 378.122 28.253 378.207 27.8119C378.305 27.3157 378.353 26.8108 378.35 26.3049C378.353 25.7988 378.305 25.2935 378.207 24.7969C378.122 24.3559 377.938 23.9401 377.667 23.5819C377.378 23.2195 376.998 22.9401 376.567 22.7719C375.994 22.5582 375.385 22.4587 374.775 22.4789H372.93V30.1299ZM386.97 27.0999C386.95 26.8329 386.892 26.5702 386.797 26.3199C386.708 26.0801 386.576 25.8588 386.407 25.6669C386.238 25.4792 386.034 25.3263 385.807 25.2169C385.561 25.0995 385.292 25.0403 385.02 25.0439C384.739 25.0402 384.461 25.094 384.202 25.2019C383.964 25.3019 383.749 25.45 383.572 25.6369C383.393 25.827 383.251 26.048 383.152 26.2889C383.045 26.5461 382.986 26.8206 382.979 27.0989L386.97 27.0999ZM382.98 28.2249C382.979 28.5196 383.022 28.8128 383.107 29.0949C383.185 29.3624 383.315 29.6121 383.489 29.8299C383.664 30.0427 383.884 30.2135 384.134 30.3299C384.426 30.4618 384.743 30.5261 385.064 30.5179C385.49 30.5387 385.912 30.4262 386.272 30.1959C386.596 29.9539 386.835 29.6148 386.954 29.2279H388.574C388.494 29.6312 388.337 30.0155 388.113 30.3599C387.9 30.6826 387.63 30.9644 387.318 31.1919C387.002 31.4199 386.649 31.5923 386.276 31.7019C385.882 31.8167 385.474 31.8733 385.065 31.8699C384.51 31.8804 383.959 31.7784 383.445 31.5699C382.99 31.3809 382.583 31.0941 382.253 30.7299C381.918 30.3567 381.666 29.9172 381.513 29.4399C381.343 28.9067 381.259 28.3496 381.266 27.7899C381.263 27.2561 381.351 26.7258 381.528 26.2219C381.694 25.7453 381.948 25.3043 382.278 24.9219C382.604 24.5457 383.005 24.2416 383.456 24.0289C383.944 23.8028 384.477 23.69 385.016 23.6989C385.586 23.6896 386.15 23.8208 386.658 24.0809C387.131 24.3236 387.545 24.6682 387.87 25.0899C388.196 25.5214 388.434 26.0131 388.57 26.5369C388.715 27.0872 388.754 27.6602 388.683 28.2249H382.98ZM395.22 26.4999C395.2 26.2896 395.139 26.0852 395.039 25.8986C394.94 25.7121 394.805 25.547 394.642 25.4129C394.298 25.1585 393.877 25.0287 393.45 25.0449C393.212 25.0486 392.976 25.0867 392.75 25.1579C392.489 25.2395 392.252 25.3837 392.06 25.5779C391.825 25.8219 391.646 26.1135 391.535 26.4329C391.38 26.8942 391.308 27.3796 391.325 27.8659C391.325 28.1892 391.363 28.5113 391.437 28.8259C391.505 29.1301 391.627 29.4196 391.797 29.6809C391.96 29.9295 392.178 30.1375 392.434 30.2889C392.722 30.4509 393.048 30.5311 393.379 30.5209C393.605 30.5282 393.83 30.4908 394.042 30.4109C394.254 30.3309 394.448 30.21 394.613 30.0549C394.959 29.7022 395.173 29.2417 395.221 28.7499H396.931C396.834 29.6338 396.428 30.4548 395.783 31.0669C395.109 31.6252 394.25 31.9106 393.376 31.8669C392.822 31.8783 392.273 31.7737 391.763 31.5599C391.315 31.3671 390.914 31.0807 390.586 30.7199C390.259 30.3544 390.011 29.9255 389.858 29.4599C389.689 28.947 389.606 28.4099 389.611 27.8699C389.607 27.3159 389.688 26.7645 389.851 26.2349C389.998 25.748 390.243 25.2961 390.571 24.9069C390.897 24.527 391.304 24.2246 391.763 24.0219C392.291 23.7965 392.861 23.6867 393.436 23.6999C393.869 23.6976 394.3 23.7555 394.718 23.8719C395.106 23.9789 395.471 24.1543 395.798 24.3899C396.114 24.6216 396.378 24.9182 396.571 25.2599C396.781 25.6435 396.904 26.0686 396.931 26.5049L395.22 26.4999ZM401.88 31.8699C401.312 31.879 400.749 31.7736 400.223 31.5599C399.757 31.3684 399.338 31.0797 398.993 30.7129C398.651 30.341 398.39 29.9016 398.228 29.4229C398.047 28.8917 397.959 28.3339 397.965 27.7729C397.959 27.217 398.048 26.6642 398.228 26.1379C398.39 25.6593 398.651 25.2199 398.993 24.8479C399.338 24.4809 399.757 24.1918 400.223 23.9999C400.749 23.7873 401.312 23.6829 401.88 23.6929C402.447 23.6828 403.011 23.7872 403.538 23.9999C404.003 24.1918 404.423 24.4809 404.768 24.8479C405.11 25.2199 405.37 25.6593 405.533 26.1379C405.712 26.6642 405.801 27.217 405.796 27.7729C405.802 28.3339 405.713 28.8917 405.533 29.4229C405.37 29.9016 405.11 30.341 404.768 30.7129C404.423 31.0797 404.003 31.3684 403.538 31.5599C403.011 31.7737 402.448 31.8792 401.88 31.8699ZM401.88 30.5199C402.225 30.5285 402.567 30.4457 402.87 30.2799C403.144 30.1248 403.38 29.9094 403.56 29.6499C403.744 29.3835 403.879 29.0866 403.96 28.7729C404.045 28.4465 404.088 28.1104 404.088 27.7729C404.087 27.4389 404.044 27.1062 403.96 26.7829C403.881 26.4683 403.746 26.1707 403.56 25.9049C403.379 25.6491 403.143 25.4367 402.87 25.2829C402.567 25.1172 402.225 25.0344 401.88 25.0429C401.534 25.0344 401.193 25.1172 400.89 25.2829C400.617 25.4367 400.381 25.6491 400.2 25.9049C400.014 26.1707 399.878 26.4683 399.8 26.7829C399.715 27.1062 399.672 27.4389 399.672 27.7729C399.671 28.1104 399.714 28.4465 399.8 28.7729C399.88 29.0866 400.016 29.3835 400.2 29.6499C400.379 29.9094 400.615 30.1248 400.89 30.2799C401.193 30.4457 401.534 30.5285 401.88 30.5199ZM407.22 23.9049H408.84V24.9849H408.885C409.011 24.7995 409.151 24.624 409.305 24.4599C409.451 24.3021 409.62 24.1658 409.805 24.0549C410.004 23.9391 410.218 23.851 410.442 23.7929C410.711 23.7235 410.988 23.6899 411.267 23.6929C411.723 23.6898 412.173 23.7979 412.579 24.0079C412.979 24.2124 413.287 24.5607 413.442 24.9829C413.711 24.604 414.054 24.2832 414.45 24.0399C414.884 23.7962 415.377 23.6768 415.875 23.6949C416.565 23.652 417.246 23.8657 417.788 24.2949C418.038 24.5617 418.229 24.8792 418.347 25.2259C418.464 25.5727 418.506 25.9406 418.47 26.3049V31.6599H416.76V27.1299C416.76 26.8199 416.75 26.5373 416.73 26.2819C416.717 26.0527 416.658 25.8284 416.558 25.6219C416.464 25.4377 416.314 25.2879 416.13 25.1939C415.885 25.0827 415.618 25.0313 415.35 25.0439C415.111 25.0229 414.872 25.0612 414.652 25.1554C414.432 25.2496 414.239 25.3969 414.09 25.5839C413.803 26.0407 413.667 26.5757 413.7 27.1139V31.6599H411.99V26.6799C412.018 26.2531 411.916 25.8276 411.698 25.4599C411.566 25.3091 411.399 25.1927 411.212 25.1209C411.025 25.0491 410.824 25.0241 410.625 25.0479C410.405 25.0478 410.188 25.0938 409.987 25.1829C409.781 25.2733 409.597 25.4063 409.447 25.5729C409.283 25.7574 409.156 25.9711 409.072 26.2029C408.973 26.4769 408.924 26.7666 408.929 27.0579V31.6599H407.219L407.22 23.9049ZM426.765 29.9349C426.753 30.0895 426.781 30.2444 426.847 30.3849C426.884 30.4338 426.933 30.472 426.99 30.4958C427.046 30.5195 427.108 30.5278 427.169 30.5199H427.349C427.43 30.5186 427.51 30.5086 427.589 30.4899V31.6749C427.529 31.6949 427.451 31.7173 427.357 31.7419C427.262 31.7666 427.165 31.7893 427.065 31.8099C426.963 31.8299 426.863 31.8466 426.765 31.8599C426.666 31.8733 426.582 31.8766 426.513 31.8699C426.208 31.882 425.906 31.8094 425.64 31.6599C425.517 31.5764 425.413 31.4677 425.335 31.3409C425.258 31.2142 425.208 31.0724 425.19 30.9249C424.836 31.2627 424.406 31.5097 423.937 31.6449C423.473 31.7901 422.99 31.8659 422.505 31.8699C422.166 31.8707 421.829 31.8225 421.505 31.7269C421.199 31.6392 420.912 31.4969 420.657 31.3069C420.41 31.12 420.21 30.8788 420.072 30.6019C419.921 30.2907 419.846 29.9478 419.855 29.6019C419.836 29.197 419.925 28.7944 420.113 28.4349C420.279 28.1464 420.517 27.9054 420.803 27.7349C421.1 27.5575 421.424 27.4308 421.763 27.3599C422.117 27.2866 422.475 27.2299 422.835 27.1899C423.127 27.1316 423.423 27.0882 423.72 27.0599C423.971 27.0399 424.219 26.9971 424.463 26.9319C424.653 26.8867 424.829 26.793 424.973 26.6599C425.04 26.5835 425.091 26.4944 425.123 26.3979C425.156 26.3014 425.168 26.1994 425.161 26.0979C425.169 25.9055 425.113 25.7157 425.003 25.5579C424.901 25.4206 424.767 25.3101 424.613 25.2359C424.45 25.1586 424.275 25.1079 424.096 25.0859C423.917 25.0615 423.736 25.0488 423.556 25.0479C423.14 25.0311 422.728 25.1353 422.371 25.3479C422.216 25.4502 422.087 25.5878 421.996 25.7496C421.905 25.9113 421.853 26.0924 421.846 26.2779H420.136C420.148 25.839 420.271 25.4104 420.496 25.0329C420.697 24.7084 420.971 24.4346 421.296 24.2329C421.634 24.0278 422.007 23.8855 422.396 23.8129C422.811 23.7325 423.233 23.6923 423.656 23.6929C424.034 23.6928 424.411 23.733 424.781 23.8129C425.134 23.8857 425.472 24.0176 425.781 24.2029C426.069 24.3775 426.313 24.6172 426.493 24.9029C426.681 25.2176 426.774 25.5796 426.763 25.9459L426.765 29.9349ZM425.055 27.7749C424.765 27.9549 424.435 28.0607 424.095 28.0829C423.715 28.1176 423.335 28.1699 422.955 28.2399C422.777 28.2696 422.601 28.3124 422.43 28.3679C422.269 28.4184 422.117 28.4944 421.98 28.5929C421.848 28.6905 421.742 28.8194 421.673 28.9679C421.593 29.1444 421.555 29.3366 421.561 29.5299C421.555 29.7047 421.614 29.8754 421.726 30.0099C421.836 30.1395 421.972 30.2441 422.126 30.3169C422.287 30.3941 422.459 30.4473 422.636 30.4749C422.801 30.5032 422.968 30.5182 423.136 30.5199C423.343 30.5179 423.549 30.4927 423.751 30.4449C423.971 30.3948 424.181 30.3087 424.373 30.1899C424.565 30.0724 424.731 29.9164 424.86 29.7319C424.996 29.5312 425.066 29.2926 425.06 29.0499L425.055 27.7749ZM427.83 23.9049H429.12V21.5799H430.83V23.9049H432.375V25.1799H430.83V29.3199C430.829 29.4753 430.836 29.6305 430.853 29.7849C430.863 29.9013 430.899 30.0139 430.958 30.1149C431.016 30.2067 431.103 30.2769 431.205 30.3149C431.349 30.3657 431.502 30.3888 431.655 30.3829C431.775 30.3829 431.895 30.3803 432.015 30.3749C432.136 30.3696 432.257 30.3518 432.375 30.3219V31.6419L431.82 31.7019C431.635 31.7222 431.45 31.7322 431.265 31.7319C430.898 31.7431 430.532 31.701 430.178 31.6069C429.934 31.5403 429.711 31.411 429.533 31.2319C429.371 31.0579 429.26 30.8427 429.213 30.6099C429.153 30.3286 429.12 30.0424 429.113 29.7549V25.1799H427.83V23.9049ZM432.83 23.9049H434.113V21.5799H435.823V23.9049H437.368V25.1799H435.825V29.3199C435.824 29.4753 435.831 29.6305 435.848 29.7849C435.857 29.9009 435.891 30.0135 435.948 30.1149C436.006 30.2069 436.093 30.2771 436.196 30.3149C436.34 30.3657 436.493 30.3888 436.646 30.3829C436.766 30.3829 436.886 30.3803 437.006 30.3749C437.127 30.3696 437.248 30.3518 437.366 30.3219V31.6419L436.813 31.7049C436.628 31.7252 436.443 31.7352 436.258 31.7349C435.892 31.745 435.526 31.7019 435.173 31.6069C434.929 31.5403 434.706 31.411 434.528 31.2319C434.368 31.0573 434.259 30.8422 434.213 30.6099C434.153 30.3286 434.12 30.0424 434.113 29.7549V25.1799H432.825L432.83 23.9049ZM443.551 27.8199H446.731V23.1999H446.701L443.551 27.8199ZM449.701 29.1699H448.351V31.6599H446.731V29.1699H442.231V27.4699L446.731 21.1549H448.351V27.8149H449.701V29.1699ZM451.113 23.9049H452.733V24.9849H452.778C452.904 24.7995 453.044 24.624 453.198 24.4599C453.344 24.3021 453.513 24.1658 453.698 24.0549C453.897 23.939 454.112 23.8509 454.336 23.7929C454.605 23.7235 454.882 23.6899 455.161 23.6929C455.617 23.6896 456.068 23.7978 456.474 24.0079C456.874 24.2126 457.182 24.5608 457.336 24.9829C457.604 24.6035 457.946 24.2821 458.341 24.0379C458.775 23.7942 459.268 23.6748 459.766 23.6929C460.455 23.6502 461.136 23.8639 461.678 24.2929C461.929 24.5596 462.12 24.8771 462.237 25.2238C462.355 25.5706 462.397 25.9386 462.361 26.3029V31.6599H460.651V27.1299C460.651 26.8199 460.641 26.5373 460.621 26.2819C460.607 26.0526 460.549 25.8283 460.448 25.6219C460.354 25.4377 460.204 25.2879 460.02 25.1939C459.775 25.0827 459.508 25.0313 459.24 25.0439C459.001 25.0229 458.762 25.0612 458.542 25.1554C458.322 25.2496 458.129 25.3969 457.98 25.5839C457.693 26.0407 457.557 26.5757 457.59 27.1139V31.6599H455.88V26.6799C455.908 26.2531 455.806 25.8276 455.588 25.4599C455.456 25.3083 455.289 25.1911 455.102 25.1188C454.914 25.0464 454.712 25.0211 454.513 25.0449C454.293 25.0448 454.076 25.0908 453.875 25.1799C453.669 25.2703 453.485 25.4033 453.335 25.5699C453.171 25.7544 453.044 25.9681 452.96 26.1999C452.861 26.474 452.813 26.7637 452.818 27.0549V31.6599H451.113V23.9049ZM464.163 23.9049H465.783V24.9849H465.828C465.954 24.7995 466.094 24.624 466.248 24.4599C466.394 24.3021 466.563 24.1658 466.748 24.0549C466.947 23.939 467.162 23.8509 467.386 23.7929C467.655 23.7235 467.932 23.6899 468.211 23.6929C468.667 23.6896 469.118 23.7978 469.524 24.0079C469.924 24.2126 470.232 24.5608 470.386 24.9829C470.654 24.6035 470.996 24.2821 471.391 24.0379C471.824 23.7954 472.316 23.6768 472.813 23.6949C473.502 23.6522 474.183 23.8659 474.725 24.2949C474.976 24.5616 475.167 24.8791 475.284 25.2258C475.402 25.5726 475.444 25.9406 475.408 26.3049V31.6599H473.698V27.1299C473.698 26.8199 473.688 26.5373 473.668 26.2819C473.654 26.0526 473.596 25.8283 473.495 25.6219C473.401 25.4377 473.251 25.2879 473.067 25.1939C472.822 25.0827 472.555 25.0313 472.287 25.0439C472.048 25.0229 471.809 25.0612 471.589 25.1554C471.369 25.2496 471.176 25.3969 471.027 25.5839C470.74 26.0407 470.604 26.5757 470.637 27.1139V31.6599H468.927V26.6799C468.956 26.2534 468.855 25.828 468.638 25.4599C468.506 25.3092 468.34 25.1929 468.153 25.1212C467.966 25.0494 467.764 25.0242 467.566 25.0479C467.346 25.0478 467.129 25.0938 466.928 25.1829C466.722 25.2733 466.538 25.4063 466.388 25.5729C466.224 25.7574 466.097 25.9711 466.013 26.2029C465.914 26.477 465.866 26.7667 465.871 27.0579V31.6599H464.161L464.163 23.9049ZM422.348 37.0699H423.878V40.0999H426.893V41.6299H423.878V44.6599H422.348V41.6299H419.333V40.0999H422.348V37.0699ZM377.858 46.9499H379.733V56.0399H385.178V57.6599H377.858V46.9499ZM393.038 57.6599H391.358V56.5799H391.328C391.112 56.9761 390.787 57.3017 390.391 57.5179C390.006 57.7444 389.569 57.8658 389.123 57.8699C388.721 57.9075 388.317 57.8595 387.935 57.729C387.554 57.5985 387.205 57.3885 386.911 57.1129C386.408 56.4612 386.165 55.6464 386.229 54.8259V49.9059H387.939V54.6599C387.888 55.1715 388.027 55.6839 388.329 56.0999C388.471 56.2446 388.643 56.3569 388.833 56.4293C389.023 56.5018 389.226 56.5327 389.429 56.5199C389.737 56.5299 390.044 56.4736 390.329 56.3549C390.555 56.2551 390.756 56.1038 390.914 55.9129C391.069 55.7168 391.18 55.4887 391.237 55.2449C391.304 54.9701 391.338 54.688 391.337 54.4049V49.9049H393.047L393.038 57.6599ZM394.838 49.9049H396.458V50.9849H396.503C396.629 50.7995 396.769 50.624 396.923 50.4599C397.07 50.3039 397.238 50.1692 397.423 50.0599C397.622 49.9437 397.837 49.8552 398.061 49.7969C398.33 49.7275 398.607 49.6939 398.886 49.6969C399.342 49.6938 399.792 49.8019 400.198 50.0119C400.598 50.2164 400.906 50.5647 401.061 50.9869C401.327 50.608 401.667 50.2867 402.061 50.0419C402.495 49.7982 402.988 49.6788 403.486 49.6969C404.176 49.654 404.857 49.8677 405.399 50.2969C405.649 50.5637 405.84 50.8812 405.958 51.2279C406.075 51.5747 406.117 51.9426 406.081 52.3069V57.6599H404.371V53.1299C404.371 52.8199 404.361 52.5373 404.341 52.2819C404.328 52.0527 404.269 51.8284 404.169 51.6219C404.075 51.4381 403.925 51.2887 403.741 51.1949C403.496 51.0837 403.229 51.0323 402.961 51.0449C402.722 51.0239 402.483 51.0622 402.263 51.1564C402.043 51.2506 401.85 51.3979 401.701 51.5849C401.414 52.0417 401.278 52.5767 401.311 53.1149V57.6599H399.601V52.6799C399.63 52.2535 399.53 51.8281 399.313 51.4599C399.181 51.3089 399.014 51.1923 398.827 51.1204C398.64 51.0484 398.439 51.0232 398.24 51.0469C398.02 51.0468 397.803 51.0928 397.602 51.1819C397.396 51.2723 397.212 51.4053 397.062 51.5719C396.898 51.7564 396.771 51.9701 396.687 52.2019C396.588 52.476 396.54 52.7657 396.545 53.0569V57.6599H394.835L394.838 49.9049ZM407.938 46.9499H409.648V48.5699H407.938V46.9499ZM407.938 49.9049H409.648V57.6599H407.938V49.9049ZM411.553 46.9499H413.263V57.6599H411.553V46.9499ZM421.613 55.9349C421.601 56.0895 421.629 56.2444 421.695 56.3849C421.732 56.4338 421.781 56.472 421.838 56.4958C421.894 56.5195 421.956 56.5278 422.017 56.5199H422.197C422.278 56.5186 422.358 56.5086 422.437 56.4899V57.6749C422.377 57.6949 422.299 57.7176 422.205 57.7429C422.11 57.7683 422.012 57.7906 421.912 57.8099C421.812 57.8299 421.712 57.8449 421.612 57.8549C421.512 57.8649 421.427 57.8699 421.357 57.8699C421.053 57.8815 420.752 57.8088 420.487 57.6599C420.364 57.5764 420.26 57.4677 420.182 57.3409C420.105 57.2142 420.055 57.0724 420.037 56.9249C419.683 57.2627 419.253 57.5097 418.784 57.6449C418.32 57.7901 417.837 57.8659 417.352 57.8699C417.012 57.8715 416.673 57.8237 416.347 57.7279C416.041 57.6401 415.754 57.4978 415.5 57.3079C415.254 57.1225 415.054 56.883 414.915 56.6079C414.763 56.2967 414.689 55.9539 414.697 55.6079C414.679 55.2015 414.77 54.7978 414.96 54.4379C415.126 54.1494 415.364 53.9084 415.65 53.7379C415.947 53.5592 416.273 53.4314 416.613 53.3599C416.968 53.2853 417.326 53.2276 417.686 53.1869C417.978 53.1296 418.274 53.0872 418.571 53.0599C418.822 53.0399 419.07 52.9971 419.314 52.9319C419.503 52.8861 419.677 52.7924 419.82 52.6599C419.887 52.5835 419.938 52.4944 419.97 52.3979C420.003 52.3014 420.015 52.1994 420.008 52.0979C420.016 51.9055 419.96 51.7157 419.85 51.5579C419.748 51.4203 419.614 51.3094 419.46 51.2349C419.297 51.1576 419.122 51.1069 418.943 51.0849C418.764 51.0605 418.583 51.0478 418.403 51.0469C417.987 51.0301 417.575 51.1343 417.218 51.3469C417.063 51.4492 416.934 51.5868 416.843 51.7486C416.752 51.9103 416.7 52.0914 416.693 52.2769H414.983C414.995 51.838 415.118 51.4094 415.343 51.0319C415.545 50.7092 415.819 50.4372 416.143 50.2369C416.481 50.0318 416.854 49.8895 417.243 49.8169C417.658 49.7365 418.08 49.6963 418.503 49.6969C418.881 49.6968 419.258 49.737 419.628 49.8169C419.981 49.8897 420.319 50.0216 420.628 50.2069C420.916 50.3815 421.16 50.6212 421.34 50.9069C421.528 51.2213 421.621 51.5829 421.61 51.9489L421.613 55.9349ZM419.903 53.7749C419.613 53.9549 419.283 54.0607 418.943 54.0829C418.563 54.1176 418.183 54.1699 417.803 54.2399C417.625 54.2696 417.449 54.3124 417.278 54.3679C417.117 54.4184 416.965 54.4944 416.828 54.5929C416.696 54.6905 416.59 54.8194 416.521 54.9679C416.441 55.1444 416.403 55.3366 416.409 55.5299C416.403 55.7047 416.462 55.8754 416.574 56.0099C416.684 56.1395 416.82 56.2441 416.974 56.3169C417.135 56.3941 417.307 56.4473 417.484 56.4749C417.649 56.5032 417.816 56.5182 417.984 56.5199C418.191 56.5179 418.397 56.4927 418.599 56.4449C418.819 56.3948 419.029 56.3087 419.221 56.1899C419.413 56.0724 419.579 55.9165 419.708 55.7319C419.844 55.5309 419.914 55.292 419.908 55.0489L419.903 53.7749ZM428.693 52.4999C428.673 52.2894 428.611 52.085 428.512 51.8984C428.412 51.7118 428.276 51.5468 428.113 51.4129C427.769 51.1585 427.348 51.0287 426.921 51.0449C426.68 51.0485 426.442 51.0872 426.213 51.1599C425.952 51.2415 425.715 51.3857 425.523 51.5799C425.288 51.8239 425.109 52.1155 424.998 52.4349C424.845 52.894 424.776 53.3765 424.793 53.8599C424.793 54.1832 424.83 54.5053 424.905 54.8199C424.973 55.1241 425.095 55.4136 425.265 55.6749C425.428 55.9236 425.646 56.1316 425.903 56.2829C426.191 56.4452 426.517 56.5258 426.848 56.5159C427.074 56.525 427.299 56.4893 427.512 56.4111C427.724 56.3328 427.919 56.2135 428.085 56.0599C428.432 55.7059 428.646 55.2434 428.693 54.7499H430.403C430.306 55.6338 429.9 56.4548 429.255 57.0669C428.58 57.6254 427.721 57.9109 426.847 57.8669C426.294 57.8781 425.745 57.7736 425.235 57.5599C424.787 57.3672 424.385 57.0808 424.057 56.7199C423.73 56.3543 423.483 55.9254 423.33 55.4599C423.16 54.9438 423.077 54.4032 423.083 53.8599C423.079 53.3076 423.16 52.7579 423.323 52.2299C423.47 51.7433 423.715 51.2918 424.043 50.9029C424.369 50.523 424.776 50.2206 425.235 50.0179C425.763 49.7923 426.333 49.6821 426.907 49.6949C427.34 49.6929 427.771 49.7511 428.189 49.8679C428.577 49.9746 428.942 50.1497 429.269 50.3849C429.585 50.6166 429.849 50.9132 430.042 51.2549C430.252 51.6385 430.375 52.0636 430.402 52.4999H428.693ZM436.748 53.8199H439.928V49.1999H439.898L436.748 53.8199ZM442.898 55.1699H441.548V57.6599H439.928V55.1699H435.428V53.4699L439.928 47.1549H441.548V53.8149H442.898V55.1699ZM444.308 49.9049H445.928V50.9849H445.973C446.099 50.7995 446.239 50.624 446.393 50.4599C446.54 50.3039 446.708 50.1692 446.893 50.0599C447.092 49.9437 447.307 49.8552 447.531 49.7969C447.8 49.7275 448.077 49.6939 448.356 49.6969C448.812 49.6936 449.263 49.8018 449.669 50.0119C450.069 50.2166 450.377 50.5648 450.531 50.9869C450.799 50.6075 451.141 50.2861 451.536 50.0419C451.97 49.7982 452.463 49.6788 452.961 49.6969C453.651 49.654 454.332 49.8677 454.874 50.2969C455.124 50.5637 455.315 50.8812 455.433 51.2279C455.55 51.5747 455.592 51.9426 455.556 52.3069V57.6599H453.846V53.1299C453.846 52.8199 453.836 52.5373 453.816 52.2819C453.802 52.0526 453.744 51.8283 453.643 51.6219C453.549 51.4383 453.399 51.2888 453.216 51.1949C452.971 51.0837 452.704 51.0323 452.436 51.0449C452.197 51.0239 451.958 51.0622 451.738 51.1564C451.518 51.2506 451.325 51.3979 451.176 51.5849C450.889 52.0417 450.753 52.5767 450.786 53.1149V57.6599H449.076V52.6799C449.105 52.2524 449.003 51.8262 448.784 51.4579C448.652 51.3069 448.485 51.1903 448.298 51.1184C448.111 51.0464 447.91 51.0212 447.711 51.0449C447.491 51.0448 447.274 51.0908 447.073 51.1799C446.867 51.2703 446.683 51.4033 446.533 51.5699C446.369 51.7544 446.242 51.9681 446.158 52.1999C446.059 52.474 446.011 52.7637 446.016 53.0549V57.6599H444.313L444.308 49.9049ZM457.358 49.9049H458.978V50.9849H459.023C459.149 50.7995 459.289 50.624 459.443 50.4599C459.59 50.3039 459.758 50.1692 459.943 50.0599C460.142 49.9437 460.357 49.8552 460.581 49.7969C460.85 49.7275 461.127 49.6939 461.406 49.6969C461.862 49.6936 462.313 49.8018 462.719 50.0119C463.119 50.2166 463.427 50.5648 463.581 50.9869C463.849 50.6075 464.191 50.2861 464.586 50.0419C465.02 49.7982 465.513 49.6788 466.011 49.6969C466.701 49.654 467.382 49.8677 467.924 50.2969C468.174 50.5637 468.365 50.8812 468.483 51.2279C468.6 51.5747 468.642 51.9426 468.606 52.3069V57.6599H466.896V53.1299C466.896 52.8199 466.886 52.5373 466.866 52.2819C466.852 52.0526 466.794 51.8283 466.693 51.6219C466.599 51.4383 466.449 51.2888 466.266 51.1949C466.021 51.0837 465.754 51.0323 465.486 51.0449C465.247 51.0239 465.008 51.0622 464.788 51.1564C464.568 51.2506 464.375 51.3979 464.226 51.5849C463.939 52.0417 463.803 52.5767 463.836 53.1149V57.6599H462.126V52.6799C462.154 52.2523 462.052 51.8261 461.833 51.4579C461.701 51.3071 461.535 51.1906 461.348 51.1186C461.161 51.0466 460.959 51.0213 460.761 51.0449C460.541 51.0448 460.324 51.0908 460.123 51.1799C459.917 51.2703 459.733 51.4033 459.583 51.5699C459.419 51.7544 459.292 51.9681 459.208 52.1999C459.109 52.474 459.061 52.7637 459.066 53.0549V57.6599H457.356L457.358 49.9049ZM422.348 63.0699H423.878V66.0999H426.893V67.6299H423.878V70.6599H422.348V67.6299H419.333V66.0999H422.348V63.0699ZM371.326 72.9499H378.726V74.5699H373.206V77.3749H378.051V78.9049H373.206V83.6599H371.331L371.326 72.9499ZM380.026 72.9499H381.736V83.6599H380.026V72.9499ZM387.151 83.8699C386.583 83.8792 386.019 83.7737 385.493 83.5599C385.027 83.3684 384.608 83.0797 384.263 82.7129C383.921 82.341 383.66 81.9016 383.498 81.4229C383.317 80.8917 383.229 80.3339 383.235 79.7729C383.229 79.217 383.318 78.6642 383.498 78.1379C383.66 77.6593 383.921 77.2199 384.263 76.8479C384.608 76.4812 385.027 76.1925 385.493 76.0009C386.019 75.7882 386.583 75.6838 387.151 75.6939C387.718 75.6839 388.282 75.7883 388.808 76.0009C389.273 76.1925 389.693 76.4812 390.038 76.8479C390.38 77.2199 390.64 77.6593 390.803 78.1379C390.982 78.6642 391.071 79.217 391.066 79.7729C391.072 80.3339 390.983 80.8918 390.803 81.4229C390.64 81.9016 390.38 82.341 390.038 82.7129C389.693 83.0797 389.273 83.3684 388.808 83.5599C388.282 83.7736 387.718 83.879 387.151 83.8699ZM387.151 82.5199C387.496 82.5285 387.838 82.4457 388.141 82.2799C388.415 82.1248 388.651 81.9094 388.831 81.6499C389.015 81.3831 389.15 81.0859 389.231 80.7719C389.316 80.4455 389.358 80.1094 389.358 79.7719C389.357 79.4379 389.315 79.1053 389.231 78.7819C389.152 78.4677 389.016 78.1704 388.831 77.9049C388.65 77.6488 388.414 77.436 388.141 77.2819C387.838 77.1162 387.496 77.0334 387.151 77.0419C386.805 77.0334 386.464 77.1162 386.161 77.2819C385.887 77.436 385.652 77.6488 385.471 77.9049C385.285 78.1704 385.149 78.4677 385.071 78.7819C384.987 79.1053 384.944 79.4379 384.944 79.7719C384.943 80.1094 384.986 80.4455 385.071 80.7719C385.151 81.0859 385.287 81.3831 385.471 81.6499C385.65 81.9094 385.886 82.1248 386.161 82.2799C386.464 82.4457 386.805 82.5285 387.151 82.5199ZM398.986 81.9349C398.974 82.0895 399.002 82.2444 399.068 82.3849C399.105 82.434 399.154 82.4723 399.211 82.496C399.268 82.5197 399.33 82.528 399.391 82.5199H399.571C399.652 82.5186 399.732 82.5086 399.811 82.4899V83.6749C399.751 83.6949 399.673 83.7176 399.579 83.7429C399.484 83.7683 399.386 83.7909 399.286 83.8109C399.186 83.8309 399.086 83.8459 398.986 83.8559C398.886 83.8659 398.801 83.8709 398.731 83.8709C398.427 83.8825 398.126 83.8098 397.861 83.6609C397.738 83.5774 397.634 83.4687 397.556 83.3419C397.479 83.2152 397.429 83.0734 397.411 82.9259C397.057 83.2637 396.627 83.5107 396.158 83.6459C395.694 83.7911 395.211 83.8669 394.726 83.8709C394.386 83.8725 394.047 83.8247 393.721 83.7289C393.415 83.6411 393.128 83.4988 392.874 83.3089C392.628 83.1235 392.428 82.884 392.289 82.6089C392.137 82.2977 392.063 81.9549 392.071 81.6089C392.053 81.2026 392.144 80.7988 392.334 80.4389C392.499 80.1486 392.737 79.9057 393.024 79.7339C393.321 79.559 393.646 79.4346 393.984 79.3659C394.338 79.2906 394.696 79.2329 395.057 79.1929C395.349 79.1356 395.645 79.0932 395.942 79.0659C396.193 79.0462 396.441 79.0037 396.685 78.9389C396.875 78.8914 397.05 78.7953 397.193 78.6599C397.26 78.5835 397.311 78.4944 397.343 78.3979C397.376 78.3014 397.388 78.1994 397.381 78.0979C397.389 77.9056 397.334 77.7158 397.224 77.5579C397.122 77.4206 396.988 77.3101 396.834 77.2359C396.671 77.1586 396.496 77.1079 396.317 77.0859C396.138 77.0615 395.957 77.0488 395.777 77.0479C395.361 77.0311 394.949 77.1353 394.592 77.3479C394.437 77.4502 394.308 77.5878 394.217 77.7495C394.126 77.9113 394.074 78.0924 394.067 78.2779H392.357C392.369 77.839 392.492 77.4104 392.717 77.0329C392.919 76.7102 393.193 76.4382 393.517 76.2379C393.855 76.0328 394.228 75.8905 394.617 75.8179C395.032 75.7375 395.454 75.6973 395.877 75.6979C396.255 75.6978 396.632 75.738 397.002 75.8179C397.355 75.8907 397.693 76.0226 398.002 76.2079C398.29 76.3825 398.534 76.6222 398.714 76.9079C398.902 77.2223 398.995 77.5839 398.984 77.9499L398.986 81.9349ZM397.276 79.7749C396.986 79.9546 396.656 80.06 396.316 80.0819C395.936 80.1166 395.556 80.1693 395.176 80.2399C394.998 80.2693 394.822 80.3117 394.651 80.3669C394.49 80.4174 394.338 80.4934 394.201 80.5919C394.068 80.6894 393.963 80.8183 393.893 80.9669C393.813 81.1437 393.775 81.3362 393.781 81.5299C393.775 81.7047 393.834 81.8754 393.946 82.0099C394.056 82.1398 394.192 82.2448 394.346 82.3179C394.507 82.3948 394.679 82.4477 394.856 82.4749C395.021 82.5032 395.188 82.5182 395.356 82.5199C395.563 82.5179 395.769 82.4927 395.971 82.4449C396.191 82.3949 396.402 82.3088 396.594 82.1899C396.786 82.0724 396.952 81.9165 397.081 81.7319C397.215 81.5306 397.284 81.2921 397.276 81.0499V79.7749ZM400.051 75.9049H401.341V73.5799H403.051V75.9049H404.596V77.1799H403.051V81.3199C403.049 81.4752 403.057 81.6305 403.073 81.7849C403.082 81.9009 403.116 82.0135 403.173 82.1149C403.231 82.2069 403.318 82.2771 403.421 82.3149C403.565 82.3653 403.718 82.3881 403.871 82.3819C403.991 82.3819 404.111 82.3796 404.231 82.3749C404.352 82.3699 404.473 82.3525 404.591 82.3229V83.6429L404.036 83.7029C403.851 83.7232 403.666 83.7332 403.481 83.7329C403.114 83.7432 402.748 83.7001 402.394 83.6049C402.15 83.5383 401.927 83.409 401.749 83.2299C401.589 83.0553 401.48 82.8402 401.434 82.6079C401.374 82.3266 401.341 82.0404 401.334 81.7529V77.1799H400.044L400.051 75.9049ZM410.776 79.8199H413.956V75.1999H413.926L410.776 79.8199ZM416.926 81.1699H415.576V83.6599H413.956V81.1699H409.456V79.4749L413.956 73.1599H415.576V79.8199H416.926V81.1699ZM418.336 75.9049H419.956V76.9849H420.001C420.127 76.7995 420.267 76.624 420.421 76.4599C420.568 76.3039 420.736 76.1692 420.921 76.0599C421.12 75.9437 421.335 75.8552 421.559 75.7969C421.828 75.7275 422.105 75.6939 422.384 75.6969C422.84 75.6938 423.29 75.8019 423.696 76.0119C424.096 76.2164 424.404 76.5647 424.559 76.9869C424.827 76.6075 425.169 76.2861 425.564 76.0419C425.998 75.7982 426.491 75.6788 426.989 75.6969C427.679 75.654 428.36 75.8677 428.902 76.2969C429.153 76.5637 429.343 76.8812 429.461 77.2279C429.578 77.5747 429.62 77.9426 429.584 78.3069V83.6599H427.876V79.1299C427.876 78.8199 427.866 78.5376 427.846 78.2829C427.833 78.0537 427.774 77.8294 427.674 77.6229C427.58 77.4387 427.43 77.2889 427.246 77.1949C427.001 77.0837 426.734 77.0323 426.466 77.0449C426.227 77.0239 425.988 77.0622 425.768 77.1564C425.548 77.2506 425.355 77.3979 425.206 77.5849C424.919 78.0417 424.783 78.5767 424.816 79.1149V83.6599H423.106V78.6799C423.134 78.253 423.032 77.8275 422.813 77.4599C422.681 77.3089 422.514 77.1923 422.327 77.1204C422.14 77.0484 421.939 77.0232 421.74 77.0469C421.52 77.0469 421.303 77.0929 421.103 77.1819C420.897 77.2723 420.713 77.4053 420.563 77.5719C420.399 77.7564 420.272 77.9701 420.188 78.2019C420.089 78.4759 420.04 78.7656 420.045 79.0569V83.6599H418.335L418.336 75.9049ZM431.386 75.9049H433.006V76.9849H433.051C433.177 76.7995 433.317 76.624 433.471 76.4599C433.618 76.3039 433.786 76.1692 433.971 76.0599C434.17 75.9438 434.384 75.8553 434.608 75.7969C434.877 75.7275 435.154 75.6939 435.433 75.6969C435.889 75.6938 436.339 75.8019 436.745 76.0119C437.145 76.2164 437.453 76.5647 437.608 76.9869C437.875 76.6068 438.217 76.2847 438.613 76.0399C439.047 75.7962 439.54 75.6768 440.038 75.6949C440.728 75.652 441.409 75.8657 441.951 76.2949C442.201 76.5617 442.392 76.8792 442.51 77.2259C442.627 77.5727 442.669 77.9406 442.633 78.3049V83.6599H440.923V79.1299C440.923 78.8199 440.913 78.5376 440.893 78.2829C440.879 78.0536 440.821 77.8293 440.72 77.6229C440.626 77.4389 440.477 77.2891 440.293 77.1949C440.048 77.0837 439.781 77.0323 439.513 77.0449C439.274 77.0239 439.035 77.0622 438.815 77.1564C438.595 77.2506 438.402 77.3979 438.253 77.5849C437.966 78.0417 437.83 78.5767 437.863 79.1149V83.6599H436.153V78.6799C436.182 78.2533 436.081 77.8279 435.863 77.4599C435.731 77.3089 435.564 77.1923 435.377 77.1204C435.19 77.0484 434.989 77.0232 434.79 77.0469C434.57 77.0468 434.353 77.0928 434.152 77.1819C433.946 77.2723 433.762 77.4053 433.612 77.5719C433.448 77.7564 433.321 77.9701 433.237 78.2019C433.138 78.4759 433.089 78.7656 433.094 79.0569V83.6599H431.386V75.9049ZM448.846 72.9499H453.286C454.018 72.9323 454.745 73.0756 455.416 73.3699C455.99 73.6298 456.494 74.023 456.886 74.5169C457.276 75.0229 457.564 75.6005 457.733 76.2169C458.103 77.5823 458.103 79.0216 457.733 80.3869C457.564 81.0034 457.276 81.5809 456.886 82.0869C456.494 82.5835 455.989 82.9788 455.413 83.2399C454.742 83.5343 454.015 83.6776 453.283 83.6599H448.843L448.846 72.9499ZM450.721 82.1299H452.566C453.176 82.1506 453.785 82.0514 454.358 81.8379C454.789 81.6698 455.169 81.3904 455.458 81.0279C455.729 80.6698 455.913 80.254 455.998 79.8129C456.188 78.8169 456.188 77.794 455.998 76.7979C455.913 76.3569 455.729 75.9411 455.458 75.5829C455.169 75.2205 454.789 74.9411 454.358 74.7729C453.785 74.5595 453.176 74.4603 452.566 74.4809H450.72L450.721 82.1299ZM459.676 72.9499H461.551V82.0399H466.996V83.6599H459.676V72.9499ZM468.286 72.9499H475.686V74.5699H470.166V77.3749H475.011V78.9049H470.161V83.6599H468.286V72.9499Z" fill="#081B4D"/>
</svg>
