<svg width="15" height="9" viewBox="0 0 15 9" fill="none" xmlns="http://www.w3.org/2000/svg">
<path d="M1.59337 0.530395L7.58892 6.52595C7.72958 6.66661 7.80859 6.85737 7.80859 7.05628C7.80859 7.2552 7.72958 7.44596 7.58892 7.58661C7.44827 7.72727 7.25751 7.80628 7.05859 7.80628C6.85968 7.80628 6.66892 7.72727 6.52826 7.58661L0.532705 1.59105C0.392053 1.4504 0.313036 1.25964 0.313036 1.06073C0.313035 0.861813 0.392053 0.671047 0.532705 0.530395C0.673358 0.389742 0.864123 0.310725 1.06304 0.310725C1.26195 0.310725 1.45271 0.389742 1.59337 0.530395Z" fill="#0B2059"/>
<path d="M7.58708 7.58624C7.44643 7.72689 7.25567 7.80591 7.05675 7.80591C6.85784 7.80591 6.66708 7.72689 6.52642 7.58624C6.38577 7.44559 6.30675 7.25482 6.30675 7.05591C6.30675 6.857 6.38577 6.66623 6.52642 6.52558L12.5213 0.530727C12.6619 0.390075 12.8527 0.311057 13.0516 0.311057C13.2505 0.311057 13.4413 0.390075 13.5819 0.530727C13.7226 0.671379 13.8016 0.862144 13.8016 1.06106C13.8016 1.25997 13.7226 1.45073 13.5819 1.59139L7.58708 7.58624Z" fill="#0B2059"/>
</svg>
