<svg width="14" height="14" viewBox="0 0 14 14" fill="none" xmlns="http://www.w3.org/2000/svg">
<path fill-rule="evenodd" clip-rule="evenodd" d="M5.95999 8.04844C5.95986 8.23559 6.03352 8.41525 6.16499 8.54844C6.29787 8.67746 6.47579 8.74961 6.661 8.74961C6.8462 8.74961 7.02412 8.67746 7.157 8.54844C7.28847 8.41525 7.36213 8.23559 7.362 8.04844V2.4044L8.617 3.66441C8.75027 3.78806 8.92521 3.85696 9.10699 3.8574C9.19724 3.85814 9.28673 3.84084 9.37019 3.8065C9.45366 3.77215 9.52942 3.72144 9.593 3.65739C9.72096 3.52933 9.79533 3.35738 9.80099 3.17643C9.80532 2.99471 9.73777 2.81864 9.61301 2.68644L7.158 0.210428C7.09456 0.141627 7.01669 0.0876575 6.92999 0.0524082C6.75781 -0.0174694 6.56519 -0.0174694 6.39301 0.0524082C6.30829 0.0878146 6.23069 0.138286 6.164 0.201395L3.709 2.65141C3.58105 2.78649 3.50951 2.96534 3.509 3.15141C3.51095 3.3352 3.58449 3.51098 3.714 3.6414C3.84545 3.76904 4.02098 3.8412 4.20419 3.84287C4.38741 3.84455 4.56424 3.77565 4.698 3.65043L5.955 2.39042L5.95999 8.04844ZM1.40199 4.89842C1.40213 4.71127 1.32848 4.53161 1.19701 4.39842C1.06413 4.2694 0.886212 4.19724 0.701004 4.19724C0.515797 4.19724 0.337876 4.2694 0.205002 4.39842C0.0735262 4.53161 -0.000135393 4.71127 1.86828e-07 4.89842V11.1984C0.00158885 11.9414 0.297785 12.6534 0.823624 13.1783C1.34946 13.7032 2.06201 13.9981 2.80499 13.9984H10.519C11.262 13.9981 11.9745 13.7032 12.5004 13.1783C13.0262 12.6534 13.3224 11.9414 13.324 11.1984V4.89842C13.3241 4.71127 13.2505 4.53161 13.119 4.39842C12.9861 4.2694 12.8082 4.19724 12.623 4.19724C12.4378 4.19724 12.2599 4.2694 12.127 4.39842C11.9955 4.53161 11.9219 4.71127 11.922 4.89842V11.1984C11.922 11.5697 11.7745 11.9258 11.5119 12.1884C11.2494 12.4509 10.8933 12.5984 10.522 12.5984H2.808C2.4367 12.5984 2.08061 12.4509 1.81805 12.1884C1.5555 11.9258 1.408 11.5697 1.408 11.1984L1.40199 4.89842Z" fill="#081B4D"/>
</svg>
